<?xml version="1.0" encoding="utf-8" standalone="no"?>
<!DOCTYPE svg PUBLIC "-//W3C//DTD SVG 1.1//EN"
  "http://www.w3.org/Graphics/SVG/1.1/DTD/svg11.dtd">
<svg xmlns:xlink="http://www.w3.org/1999/xlink" width="631.321569pt" height="588.35625pt" viewBox="0 0 631.321569 588.35625" xmlns="http://www.w3.org/2000/svg" version="1.1">
 <metadata>
  <rdf:RDF xmlns:dc="http://purl.org/dc/elements/1.1/" xmlns:cc="http://creativecommons.org/ns#" xmlns:rdf="http://www.w3.org/1999/02/22-rdf-syntax-ns#">
   <cc:Work>
    <dc:type rdf:resource="http://purl.org/dc/dcmitype/StillImage"/>
    <dc:date>2022-09-18T14:01:33.107615</dc:date>
    <dc:format>image/svg+xml</dc:format>
    <dc:creator>
     <cc:Agent>
      <dc:title>Matplotlib v3.5.1, https://matplotlib.org/</dc:title>
     </cc:Agent>
    </dc:creator>
   </cc:Work>
  </rdf:RDF>
 </metadata>
 <defs>
  <style type="text/css">*{stroke-linejoin: round; stroke-linecap: butt}</style>
 </defs>
 <g id="figure_1">
  <g id="patch_1">
   <path d="M 0 588.35625 
L 631.321569 588.35625 
L 631.321569 0 
L 0 0 
L 0 588.35625 
z
" style="fill: none"/>
  </g>
  <g id="axes_1">
   <g id="patch_2">
    <path d="M 40.603125 550.8 
L 598.603125 550.8 
L 598.603125 7.2 
L 40.603125 7.2 
z
" style="fill: #ffffff"/>
   </g>
   <g id="PathCollection_1">
    <path d="M 253.316783 457.146649 
C 254.254418 457.146649 255.153775 456.774123 255.816783 456.111115 
C 256.479791 455.448107 256.852317 454.54875 256.852317 453.611115 
C 256.852317 452.67348 256.479791 451.774123 255.816783 451.111115 
C 255.153775 450.448107 254.254418 450.075581 253.316783 450.075581 
C 252.379149 450.075581 251.479791 450.448107 250.816783 451.111115 
C 250.153775 451.774123 249.781249 452.67348 249.781249 453.611115 
C 249.781249 454.54875 250.153775 455.448107 250.816783 456.111115 
C 251.479791 456.774123 252.379149 457.146649 253.316783 457.146649 
z
" clip-path="url(#p7e6b0542aa)" style="fill: #de1c07; fill-opacity: 0.9; stroke: #ffffff; stroke-opacity: 0.9; stroke-width: 0.565685"/>
    <path d="M 217.642547 195.376131 
C 218.580181 195.376131 219.479539 195.003605 220.142547 194.340597 
C 220.805555 193.677589 221.178081 192.778231 221.178081 191.840597 
C 221.178081 190.902962 220.805555 190.003605 220.142547 189.340597 
C 219.479539 188.677589 218.580181 188.305063 217.642547 188.305063 
C 216.704912 188.305063 215.805555 188.677589 215.142547 189.340597 
C 214.479539 190.003605 214.107013 190.902962 214.107013 191.840597 
C 214.107013 192.778231 214.479539 193.677589 215.142547 194.340597 
C 215.805555 195.003605 216.704912 195.376131 217.642547 195.376131 
z
" clip-path="url(#p7e6b0542aa)" style="fill: #0209d6; fill-opacity: 0.9; stroke: #ffffff; stroke-opacity: 0.9; stroke-width: 0.565685"/>
    <path d="M 333.610841 485.21423 
C 334.548476 485.21423 335.447834 484.841704 336.110841 484.178696 
C 336.773849 483.515689 337.146375 482.616331 337.146375 481.678696 
C 337.146375 480.741062 336.773849 479.841704 336.110841 479.178696 
C 335.447834 478.515689 334.548476 478.143163 333.610841 478.143163 
C 332.673207 478.143163 331.773849 478.515689 331.110841 479.178696 
C 330.447834 479.841704 330.075307 480.741062 330.075307 481.678696 
C 330.075307 482.616331 330.447834 483.515689 331.110841 484.178696 
C 331.773849 484.841704 332.673207 485.21423 333.610841 485.21423 
z
" clip-path="url(#p7e6b0542aa)" style="fill: #de1c07; fill-opacity: 0.9; stroke: #ffffff; stroke-opacity: 0.9; stroke-width: 0.565685"/>
    <path d="M 552.385319 507.730606 
C 553.322953 507.730606 554.222311 507.358079 554.885319 506.695072 
C 555.548327 506.032064 555.920853 505.132706 555.920853 504.195072 
C 555.920853 503.257437 555.548327 502.358079 554.885319 501.695072 
C 554.222311 501.032064 553.322953 500.659538 552.385319 500.659538 
C 551.447684 500.659538 550.548327 501.032064 549.885319 501.695072 
C 549.222311 502.358079 548.849785 503.257437 548.849785 504.195072 
C 548.849785 505.132706 549.222311 506.032064 549.885319 506.695072 
C 550.548327 507.358079 551.447684 507.730606 552.385319 507.730606 
z
" clip-path="url(#p7e6b0542aa)" style="fill: #de1c07; fill-opacity: 0.9; stroke: #ffffff; stroke-opacity: 0.9; stroke-width: 0.565685"/>
    <path d="M 543.359622 505.730899 
C 544.297257 505.730899 545.196614 505.358373 545.859622 504.695365 
C 546.52263 504.032357 546.895156 503.133 546.895156 502.195365 
C 546.895156 501.25773 546.52263 500.358373 545.859622 499.695365 
C 545.196614 499.032357 544.297257 498.659831 543.359622 498.659831 
C 542.421987 498.659831 541.52263 499.032357 540.859622 499.695365 
C 540.196614 500.358373 539.824088 501.25773 539.824088 502.195365 
C 539.824088 503.133 540.196614 504.032357 540.859622 504.695365 
C 541.52263 505.358373 542.421987 505.730899 543.359622 505.730899 
z
" clip-path="url(#p7e6b0542aa)" style="fill: #de1c07; fill-opacity: 0.9; stroke: #ffffff; stroke-opacity: 0.9; stroke-width: 0.565685"/>
    <path d="M 301.970663 498.295408 
C 302.908298 498.295408 303.807655 497.922882 304.470663 497.259874 
C 305.133671 496.596867 305.506197 495.697509 305.506197 494.759874 
C 305.506197 493.82224 305.133671 492.922882 304.470663 492.259874 
C 303.807655 491.596867 302.908298 491.224341 301.970663 491.224341 
C 301.033029 491.224341 300.133671 491.596867 299.470663 492.259874 
C 298.807655 492.922882 298.435129 493.82224 298.435129 494.759874 
C 298.435129 495.697509 298.807655 496.596867 299.470663 497.259874 
C 300.133671 497.922882 301.033029 498.295408 301.970663 498.295408 
z
" clip-path="url(#p7e6b0542aa)" style="fill: #de1c07; fill-opacity: 0.9; stroke: #ffffff; stroke-opacity: 0.9; stroke-width: 0.565685"/>
    <path d="M 319.469468 465.835415 
C 320.407103 465.835415 321.30646 465.462889 321.969468 464.799882 
C 322.632476 464.136874 323.005002 463.237516 323.005002 462.299882 
C 323.005002 461.362247 322.632476 460.462889 321.969468 459.799882 
C 321.30646 459.136874 320.407103 458.764348 319.469468 458.764348 
C 318.531833 458.764348 317.632476 459.136874 316.969468 459.799882 
C 316.30646 460.462889 315.933934 461.362247 315.933934 462.299882 
C 315.933934 463.237516 316.30646 464.136874 316.969468 464.799882 
C 317.632476 465.462889 318.531833 465.835415 319.469468 465.835415 
z
" clip-path="url(#p7e6b0542aa)" style="fill: #de1c07; fill-opacity: 0.9; stroke: #ffffff; stroke-opacity: 0.9; stroke-width: 0.565685"/>
    <path d="M 419.345982 482.391 
C 420.283617 482.391 421.182974 482.018474 421.845982 481.355467 
C 422.50899 480.692459 422.881516 479.793101 422.881516 478.855467 
C 422.881516 477.917832 422.50899 477.018474 421.845982 476.355467 
C 421.182974 475.692459 420.283617 475.319933 419.345982 475.319933 
C 418.408347 475.319933 417.50899 475.692459 416.845982 476.355467 
C 416.182974 477.018474 415.810448 477.917832 415.810448 478.855467 
C 415.810448 479.793101 416.182974 480.692459 416.845982 481.355467 
C 417.50899 482.018474 418.408347 482.391 419.345982 482.391 
z
" clip-path="url(#p7e6b0542aa)" style="fill: #de1c07; fill-opacity: 0.9; stroke: #ffffff; stroke-opacity: 0.9; stroke-width: 0.565685"/>
    <path d="M 331.053022 437.11922 
C 331.990657 437.11922 332.890014 436.746694 333.553022 436.083686 
C 334.21603 435.420679 334.588556 434.521321 334.588556 433.583686 
C 334.588556 432.646052 334.21603 431.746694 333.553022 431.083686 
C 332.890014 430.420679 331.990657 430.048153 331.053022 430.048153 
C 330.115387 430.048153 329.21603 430.420679 328.553022 431.083686 
C 327.890014 431.746694 327.517488 432.646052 327.517488 433.583686 
C 327.517488 434.521321 327.890014 435.420679 328.553022 436.083686 
C 329.21603 436.746694 330.115387 437.11922 331.053022 437.11922 
z
" clip-path="url(#p7e6b0542aa)" style="fill: #de1c07; fill-opacity: 0.9; stroke: #ffffff; stroke-opacity: 0.9; stroke-width: 0.565685"/>
    <path d="M 533.587182 518.359406 
C 534.524817 518.359406 535.424174 517.98688 536.087182 517.323873 
C 536.75019 516.660865 537.122716 515.761507 537.122716 514.823873 
C 537.122716 513.886238 536.75019 512.98688 536.087182 512.323873 
C 535.424174 511.660865 534.524817 511.288339 533.587182 511.288339 
C 532.649547 511.288339 531.75019 511.660865 531.087182 512.323873 
C 530.424174 512.98688 530.051648 513.886238 530.051648 514.823873 
C 530.051648 515.761507 530.424174 516.660865 531.087182 517.323873 
C 531.75019 517.98688 532.649547 518.359406 533.587182 518.359406 
z
" clip-path="url(#p7e6b0542aa)" style="fill: #de1c07; fill-opacity: 0.9; stroke: #ffffff; stroke-opacity: 0.9; stroke-width: 0.565685"/>
    <path d="M 318.088559 490.508555 
C 319.026193 490.508555 319.925551 490.136028 320.588559 489.473021 
C 321.251567 488.810013 321.624093 487.910655 321.624093 486.973021 
C 321.624093 486.035386 321.251567 485.136028 320.588559 484.473021 
C 319.925551 483.810013 319.026193 483.437487 318.088559 483.437487 
C 317.150924 483.437487 316.251567 483.810013 315.588559 484.473021 
C 314.925551 485.136028 314.553025 486.035386 314.553025 486.973021 
C 314.553025 487.910655 314.925551 488.810013 315.588559 489.473021 
C 316.251567 490.136028 317.150924 490.508555 318.088559 490.508555 
z
" clip-path="url(#p7e6b0542aa)" style="fill: #de1c07; fill-opacity: 0.9; stroke: #ffffff; stroke-opacity: 0.9; stroke-width: 0.565685"/>
    <path d="M 397.326889 92.857927 
C 398.264523 92.857927 399.163881 92.485401 399.826889 91.822393 
C 400.489896 91.159386 400.862423 90.260028 400.862423 89.322393 
C 400.862423 88.384759 400.489896 87.485401 399.826889 86.822393 
C 399.163881 86.159386 398.264523 85.786859 397.326889 85.786859 
C 396.389254 85.786859 395.489896 86.159386 394.826889 86.822393 
C 394.163881 87.485401 393.791355 88.384759 393.791355 89.322393 
C 393.791355 90.260028 394.163881 91.159386 394.826889 91.822393 
C 395.489896 92.485401 396.389254 92.857927 397.326889 92.857927 
z
" clip-path="url(#p7e6b0542aa)" style="fill-opacity: 0.9; stroke: #ffffff; stroke-opacity: 0.9; stroke-width: 0.565685"/>
    <path d="M 229.888411 128.316029 
C 230.826046 128.316029 231.725403 127.943502 232.388411 127.280495 
C 233.051419 126.617487 233.423945 125.718129 233.423945 124.780495 
C 233.423945 123.84286 233.051419 122.943502 232.388411 122.280495 
C 231.725403 121.617487 230.826046 121.244961 229.888411 121.244961 
C 228.950777 121.244961 228.051419 121.617487 227.388411 122.280495 
C 226.725403 122.943502 226.352877 123.84286 226.352877 124.780495 
C 226.352877 125.718129 226.725403 126.617487 227.388411 127.280495 
C 228.051419 127.943502 228.950777 128.316029 229.888411 128.316029 
z
" clip-path="url(#p7e6b0542aa)" style="fill: #0209d6; fill-opacity: 0.9; stroke: #ffffff; stroke-opacity: 0.9; stroke-width: 0.565685"/>
    <path d="M 277.394089 149.905998 
C 278.331723 149.905998 279.231081 149.533472 279.894089 148.870464 
C 280.557096 148.207457 280.929623 147.308099 280.929623 146.370464 
C 280.929623 145.43283 280.557096 144.533472 279.894089 143.870464 
C 279.231081 143.207457 278.331723 142.83493 277.394089 142.83493 
C 276.456454 142.83493 275.557096 143.207457 274.894089 143.870464 
C 274.231081 144.533472 273.858555 145.43283 273.858555 146.370464 
C 273.858555 147.308099 274.231081 148.207457 274.894089 148.870464 
C 275.557096 149.533472 276.456454 149.905998 277.394089 149.905998 
z
" clip-path="url(#p7e6b0542aa)" style="fill: #0209d6; fill-opacity: 0.9; stroke: #ffffff; stroke-opacity: 0.9; stroke-width: 0.565685"/>
    <path d="M 130.179598 151.106644 
C 131.117232 151.106644 132.01659 150.734118 132.679598 150.07111 
C 133.342605 149.408102 133.715132 148.508745 133.715132 147.57111 
C 133.715132 146.633475 133.342605 145.734118 132.679598 145.07111 
C 132.01659 144.408102 131.117232 144.035576 130.179598 144.035576 
C 129.241963 144.035576 128.342605 144.408102 127.679598 145.07111 
C 127.01659 145.734118 126.644064 146.633475 126.644064 147.57111 
C 126.644064 148.508745 127.01659 149.408102 127.679598 150.07111 
C 128.342605 150.734118 129.241963 151.106644 130.179598 151.106644 
z
" clip-path="url(#p7e6b0542aa)" style="fill: #0209d6; fill-opacity: 0.9; stroke: #ffffff; stroke-opacity: 0.9; stroke-width: 0.565685"/>
    <path d="M 249.898366 283.33895 
C 250.836001 283.33895 251.735358 282.966424 252.398366 282.303416 
C 253.061374 281.640408 253.4339 280.741051 253.4339 279.803416 
C 253.4339 278.865782 253.061374 277.966424 252.398366 277.303416 
C 251.735358 276.640408 250.836001 276.267882 249.898366 276.267882 
C 248.960732 276.267882 248.061374 276.640408 247.398366 277.303416 
C 246.735358 277.966424 246.362832 278.865782 246.362832 279.803416 
C 246.362832 280.741051 246.735358 281.640408 247.398366 282.303416 
C 248.061374 282.966424 248.960732 283.33895 249.898366 283.33895 
z
" clip-path="url(#p7e6b0542aa)" style="fill: #0209d6; fill-opacity: 0.9; stroke: #ffffff; stroke-opacity: 0.9; stroke-width: 0.565685"/>
    <path d="M 268.121106 323.135165 
C 269.05874 323.135165 269.958098 322.762639 270.621106 322.099631 
C 271.284113 321.436623 271.65664 320.537265 271.65664 319.599631 
C 271.65664 318.661996 271.284113 317.762639 270.621106 317.099631 
C 269.958098 316.436623 269.05874 316.064097 268.121106 316.064097 
C 267.183471 316.064097 266.284113 316.436623 265.621106 317.099631 
C 264.958098 317.762639 264.585572 318.661996 264.585572 319.599631 
C 264.585572 320.537265 264.958098 321.436623 265.621106 322.099631 
C 266.284113 322.762639 267.183471 323.135165 268.121106 323.135165 
z
" clip-path="url(#p7e6b0542aa)" style="fill-opacity: 0.9; stroke: #ffffff; stroke-opacity: 0.9; stroke-width: 0.565685"/>
    <path d="M 306.214544 38.733281 
C 307.152179 38.733281 308.051537 38.360755 308.714544 37.697747 
C 309.377552 37.03474 309.750078 36.135382 309.750078 35.197747 
C 309.750078 34.260113 309.377552 33.360755 308.714544 32.697747 
C 308.051537 32.03474 307.152179 31.662213 306.214544 31.662213 
C 305.27691 31.662213 304.377552 32.03474 303.714544 32.697747 
C 303.051537 33.360755 302.67901 34.260113 302.67901 35.197747 
C 302.67901 36.135382 303.051537 37.03474 303.714544 37.697747 
C 304.377552 38.360755 305.27691 38.733281 306.214544 38.733281 
z
" clip-path="url(#p7e6b0542aa)" style="fill-opacity: 0.9; stroke: #ffffff; stroke-opacity: 0.9; stroke-width: 0.565685"/>
    <path d="M 183.495277 302.067854 
C 184.432911 302.067854 185.332269 301.695328 185.995277 301.03232 
C 186.658284 300.369312 187.03081 299.469955 187.03081 298.53232 
C 187.03081 297.594686 186.658284 296.695328 185.995277 296.03232 
C 185.332269 295.369312 184.432911 294.996786 183.495277 294.996786 
C 182.557642 294.996786 181.658284 295.369312 180.995277 296.03232 
C 180.332269 296.695328 179.959743 297.594686 179.959743 298.53232 
C 179.959743 299.469955 180.332269 300.369312 180.995277 301.03232 
C 181.658284 301.695328 182.557642 302.067854 183.495277 302.067854 
z
" clip-path="url(#p7e6b0542aa)" style="fill-opacity: 0.9; stroke: #ffffff; stroke-opacity: 0.9; stroke-width: 0.565685"/>
    <path d="M 410.669138 463.721923 
C 411.606773 463.721923 412.506131 463.349397 413.169138 462.686389 
C 413.832146 462.023382 414.204672 461.124024 414.204672 460.186389 
C 414.204672 459.248755 413.832146 458.349397 413.169138 457.686389 
C 412.506131 457.023382 411.606773 456.650856 410.669138 456.650856 
C 409.731504 456.650856 408.832146 457.023382 408.169138 457.686389 
C 407.506131 458.349397 407.133604 459.248755 407.133604 460.186389 
C 407.133604 461.124024 407.506131 462.023382 408.169138 462.686389 
C 408.832146 463.349397 409.731504 463.721923 410.669138 463.721923 
z
" clip-path="url(#p7e6b0542aa)" style="fill: #de1c07; fill-opacity: 0.9; stroke: #ffffff; stroke-opacity: 0.9; stroke-width: 0.565685"/>
    <path d="M 456.650367 423.361724 
C 457.588002 423.361724 458.48736 422.989197 459.150367 422.32619 
C 459.813375 421.663182 460.185901 420.763824 460.185901 419.82619 
C 460.185901 418.888555 459.813375 417.989197 459.150367 417.32619 
C 458.48736 416.663182 457.588002 416.290656 456.650367 416.290656 
C 455.712733 416.290656 454.813375 416.663182 454.150367 417.32619 
C 453.48736 417.989197 453.114834 418.888555 453.114834 419.82619 
C 453.114834 420.763824 453.48736 421.663182 454.150367 422.32619 
C 454.813375 422.989197 455.712733 423.361724 456.650367 423.361724 
z
" clip-path="url(#p7e6b0542aa)" style="fill: #de1c07; fill-opacity: 0.9; stroke: #ffffff; stroke-opacity: 0.9; stroke-width: 0.565685"/>
    <path d="M 255.781527 108.923685 
C 256.719162 108.923685 257.61852 108.551159 258.281527 107.888152 
C 258.944535 107.225144 259.317061 106.325786 259.317061 105.388152 
C 259.317061 104.450517 258.944535 103.551159 258.281527 102.888152 
C 257.61852 102.225144 256.719162 101.852618 255.781527 101.852618 
C 254.843893 101.852618 253.944535 102.225144 253.281527 102.888152 
C 252.61852 103.551159 252.245994 104.450517 252.245994 105.388152 
C 252.245994 106.325786 252.61852 107.225144 253.281527 107.888152 
C 253.944535 108.551159 254.843893 108.923685 255.781527 108.923685 
z
" clip-path="url(#p7e6b0542aa)" style="fill: #0209d6; fill-opacity: 0.9; stroke: #ffffff; stroke-opacity: 0.9; stroke-width: 0.565685"/>
    <path d="M 264.259445 283.260838 
C 265.19708 283.260838 266.096437 282.888312 266.759445 282.225304 
C 267.422453 281.562297 267.794979 280.662939 267.794979 279.725304 
C 267.794979 278.78767 267.422453 277.888312 266.759445 277.225304 
C 266.096437 276.562297 265.19708 276.189771 264.259445 276.189771 
C 263.32181 276.189771 262.422453 276.562297 261.759445 277.225304 
C 261.096437 277.888312 260.723911 278.78767 260.723911 279.725304 
C 260.723911 280.662939 261.096437 281.562297 261.759445 282.225304 
C 262.422453 282.888312 263.32181 283.260838 264.259445 283.260838 
z
" clip-path="url(#p7e6b0542aa)" style="fill: #0209d6; fill-opacity: 0.9; stroke: #ffffff; stroke-opacity: 0.9; stroke-width: 0.565685"/>
    <path d="M 393.502729 187.693209 
C 394.440363 187.693209 395.339721 187.320683 396.002729 186.657676 
C 396.665736 185.994668 397.038263 185.09531 397.038263 184.157676 
C 397.038263 183.220041 396.665736 182.320683 396.002729 181.657676 
C 395.339721 180.994668 394.440363 180.622142 393.502729 180.622142 
C 392.565094 180.622142 391.665736 180.994668 391.002729 181.657676 
C 390.339721 182.320683 389.967195 183.220041 389.967195 184.157676 
C 389.967195 185.09531 390.339721 185.994668 391.002729 186.657676 
C 391.665736 187.320683 392.565094 187.693209 393.502729 187.693209 
z
" clip-path="url(#p7e6b0542aa)" style="fill: #0209d6; fill-opacity: 0.9; stroke: #ffffff; stroke-opacity: 0.9; stroke-width: 0.565685"/>
    <path d="M 272.930915 147.396389 
C 273.86855 147.396389 274.767908 147.023862 275.430915 146.360855 
C 276.093923 145.697847 276.466449 144.798489 276.466449 143.860855 
C 276.466449 142.92322 276.093923 142.023862 275.430915 141.360855 
C 274.767908 140.697847 273.86855 140.325321 272.930915 140.325321 
C 271.993281 140.325321 271.093923 140.697847 270.430915 141.360855 
C 269.767908 142.023862 269.395381 142.92322 269.395381 143.860855 
C 269.395381 144.798489 269.767908 145.697847 270.430915 146.360855 
C 271.093923 147.023862 271.993281 147.396389 272.930915 147.396389 
z
" clip-path="url(#p7e6b0542aa)" style="fill: #0209d6; fill-opacity: 0.9; stroke: #ffffff; stroke-opacity: 0.9; stroke-width: 0.565685"/>
    <path d="M 123.856049 153.481898 
C 124.793683 153.481898 125.693041 153.109372 126.356049 152.446364 
C 127.019056 151.783356 127.391583 150.883999 127.391583 149.946364 
C 127.391583 149.008729 127.019056 148.109372 126.356049 147.446364 
C 125.693041 146.783356 124.793683 146.41083 123.856049 146.41083 
C 122.918414 146.41083 122.019056 146.783356 121.356049 147.446364 
C 120.693041 148.109372 120.320515 149.008729 120.320515 149.946364 
C 120.320515 150.883999 120.693041 151.783356 121.356049 152.446364 
C 122.019056 153.109372 122.918414 153.481898 123.856049 153.481898 
z
" clip-path="url(#p7e6b0542aa)" style="fill: #0209d6; fill-opacity: 0.9; stroke: #ffffff; stroke-opacity: 0.9; stroke-width: 0.565685"/>
    <path d="M 168.476381 117.928358 
L 170.244148 116.160591 
L 172.011915 117.928358 
L 173.779682 116.160591 
L 172.011915 114.392824 
L 173.779682 112.625057 
L 172.011915 110.85729 
L 170.244148 112.625057 
L 168.476381 110.85729 
L 166.708614 112.625057 
L 168.476381 114.392824 
L 166.708614 116.160591 
z
" clip-path="url(#p7e6b0542aa)" style="fill: #0209d6; fill-opacity: 0.9; stroke: #ffffff; stroke-opacity: 0.9; stroke-width: 0.565685"/>
    <path d="M 341.487306 116.074558 
L 343.255073 114.306791 
L 345.02284 116.074558 
L 346.790607 114.306791 
L 345.02284 112.539024 
L 346.790607 110.771257 
L 345.02284 109.00349 
L 343.255073 110.771257 
L 341.487306 109.00349 
L 339.719539 110.771257 
L 341.487306 112.539024 
L 339.719539 114.306791 
z
" clip-path="url(#p7e6b0542aa)" style="fill-opacity: 0.9; stroke: #ffffff; stroke-opacity: 0.9; stroke-width: 0.565685"/>
    <path d="M 298.478958 181.280614 
L 300.246725 179.512847 
L 302.014492 181.280614 
L 303.782259 179.512847 
L 302.014492 177.74508 
L 303.782259 175.977313 
L 302.014492 174.209546 
L 300.246725 175.977313 
L 298.478958 174.209546 
L 296.711191 175.977313 
L 298.478958 177.74508 
L 296.711191 179.512847 
z
" clip-path="url(#p7e6b0542aa)" style="fill: #0209d6; fill-opacity: 0.9; stroke: #ffffff; stroke-opacity: 0.9; stroke-width: 0.565685"/>
    <path d="M 370.53532 412.918673 
L 372.303087 411.150906 
L 374.070854 412.918673 
L 375.838621 411.150906 
L 374.070854 409.38314 
L 375.838621 407.615373 
L 374.070854 405.847606 
L 372.303087 407.615373 
L 370.53532 405.847606 
L 368.767554 407.615373 
L 370.53532 409.38314 
L 368.767554 411.150906 
z
" clip-path="url(#p7e6b0542aa)" style="fill: #de1c07; fill-opacity: 0.9; stroke: #ffffff; stroke-opacity: 0.9; stroke-width: 0.565685"/>
    <path d="M 492.584237 458.22693 
L 494.352004 456.459163 
L 496.119771 458.22693 
L 497.887538 456.459163 
L 496.119771 454.691396 
L 497.887538 452.92363 
L 496.119771 451.155863 
L 494.352004 452.92363 
L 492.584237 451.155863 
L 490.81647 452.92363 
L 492.584237 454.691396 
L 490.81647 456.459163 
z
" clip-path="url(#p7e6b0542aa)" style="fill: #de1c07; fill-opacity: 0.9; stroke: #ffffff; stroke-opacity: 0.9; stroke-width: 0.565685"/>
    <path d="M 449.362008 500.234979 
L 451.129775 498.467212 
L 452.897542 500.234979 
L 454.665309 498.467212 
L 452.897542 496.699445 
L 454.665309 494.931679 
L 452.897542 493.163912 
L 451.129775 494.931679 
L 449.362008 493.163912 
L 447.594241 494.931679 
L 449.362008 496.699445 
L 447.594241 498.467212 
z
" clip-path="url(#p7e6b0542aa)" style="fill: #de1c07; fill-opacity: 0.9; stroke: #ffffff; stroke-opacity: 0.9; stroke-width: 0.565685"/>
    <path d="M 464.101512 345.860301 
L 465.869279 344.092534 
L 467.637046 345.860301 
L 469.404813 344.092534 
L 467.637046 342.324767 
L 469.404813 340.557 
L 467.637046 338.789233 
L 465.869279 340.557 
L 464.101512 338.789233 
L 462.333745 340.557 
L 464.101512 342.324767 
L 462.333745 344.092534 
z
" clip-path="url(#p7e6b0542aa)" style="fill-opacity: 0.9; stroke: #ffffff; stroke-opacity: 0.9; stroke-width: 0.565685"/>
    <path d="M 394.162108 187.339499 
C 395.099743 187.339499 395.9991 186.966973 396.662108 186.303965 
C 397.325116 185.640957 397.697642 184.7416 397.697642 183.803965 
C 397.697642 182.86633 397.325116 181.966973 396.662108 181.303965 
C 395.9991 180.640957 395.099743 180.268431 394.162108 180.268431 
C 393.224473 180.268431 392.325116 180.640957 391.662108 181.303965 
C 390.9991 181.966973 390.626574 182.86633 390.626574 183.803965 
C 390.626574 184.7416 390.9991 185.640957 391.662108 186.303965 
C 392.325116 186.966973 393.224473 187.339499 394.162108 187.339499 
z
" clip-path="url(#p7e6b0542aa)" style="fill: #0209d6; fill-opacity: 0.9; stroke: #ffffff; stroke-opacity: 0.9; stroke-width: 0.565685"/>
    <path d="M 397.605438 429.627022 
C 398.543072 429.627022 399.44243 429.254496 400.105438 428.591489 
C 400.768445 427.928481 401.140972 427.029123 401.140972 426.091489 
C 401.140972 425.153854 400.768445 424.254496 400.105438 423.591489 
C 399.44243 422.928481 398.543072 422.555955 397.605438 422.555955 
C 396.667803 422.555955 395.768445 422.928481 395.105438 423.591489 
C 394.44243 424.254496 394.069904 425.153854 394.069904 426.091489 
C 394.069904 427.029123 394.44243 427.928481 395.105438 428.591489 
C 395.768445 429.254496 396.667803 429.627022 397.605438 429.627022 
z
" clip-path="url(#p7e6b0542aa)" style="fill: #de1c07; fill-opacity: 0.9; stroke: #ffffff; stroke-opacity: 0.9; stroke-width: 0.565685"/>
    <path d="M 311.469326 259.538073 
C 312.406961 259.538073 313.306318 259.165546 313.969326 258.502539 
C 314.632334 257.839531 315.00486 256.940173 315.00486 256.002539 
C 315.00486 255.064904 314.632334 254.165546 313.969326 253.502539 
C 313.306318 252.839531 312.406961 252.467005 311.469326 252.467005 
C 310.531692 252.467005 309.632334 252.839531 308.969326 253.502539 
C 308.306318 254.165546 307.933792 255.064904 307.933792 256.002539 
C 307.933792 256.940173 308.306318 257.839531 308.969326 258.502539 
C 309.632334 259.165546 310.531692 259.538073 311.469326 259.538073 
z
" clip-path="url(#p7e6b0542aa)" style="fill: #0209d6; fill-opacity: 0.9; stroke: #ffffff; stroke-opacity: 0.9; stroke-width: 0.565685"/>
    <path d="M 448.12533 383.346154 
C 449.062964 383.346154 449.962322 382.973628 450.62533 382.31062 
C 451.288338 381.647612 451.660864 380.748255 451.660864 379.81062 
C 451.660864 378.872985 451.288338 377.973628 450.62533 377.31062 
C 449.962322 376.647612 449.062964 376.275086 448.12533 376.275086 
C 447.187695 376.275086 446.288338 376.647612 445.62533 377.31062 
C 444.962322 377.973628 444.589796 378.872985 444.589796 379.81062 
C 444.589796 380.748255 444.962322 381.647612 445.62533 382.31062 
C 446.288338 382.973628 447.187695 383.346154 448.12533 383.346154 
z
" clip-path="url(#p7e6b0542aa)" style="fill: #de1c07; fill-opacity: 0.9; stroke: #ffffff; stroke-opacity: 0.9; stroke-width: 0.565685"/>
   </g>
   <g id="matplotlib.axis_1">
    <g id="xtick_1">
     <g id="line2d_1">
      <defs>
       <path id="m3c8855152b" d="M 0 0 
L 0 3.5 
" style="stroke: #000000; stroke-width: 0.8"/>
      </defs>
      <g>
       <use xlink:href="#m3c8855152b" x="65.966761" y="550.8" style="stroke: #000000; stroke-width: 0.8"/>
      </g>
     </g>
     <g id="text_1">
      <!-- −20 -->
      <g transform="translate(55.414418 565.398438)scale(0.1 -0.1)">
       <defs>
        <path id="DejaVuSans-2212" d="M 678 2272 
L 4684 2272 
L 4684 1741 
L 678 1741 
L 678 2272 
z
" transform="scale(0.015625)"/>
        <path id="DejaVuSans-32" d="M 1228 531 
L 3431 531 
L 3431 0 
L 469 0 
L 469 531 
Q 828 903 1448 1529 
Q 2069 2156 2228 2338 
Q 2531 2678 2651 2914 
Q 2772 3150 2772 3378 
Q 2772 3750 2511 3984 
Q 2250 4219 1831 4219 
Q 1534 4219 1204 4116 
Q 875 4013 500 3803 
L 500 4441 
Q 881 4594 1212 4672 
Q 1544 4750 1819 4750 
Q 2544 4750 2975 4387 
Q 3406 4025 3406 3419 
Q 3406 3131 3298 2873 
Q 3191 2616 2906 2266 
Q 2828 2175 2409 1742 
Q 1991 1309 1228 531 
z
" transform="scale(0.015625)"/>
        <path id="DejaVuSans-30" d="M 2034 4250 
Q 1547 4250 1301 3770 
Q 1056 3291 1056 2328 
Q 1056 1369 1301 889 
Q 1547 409 2034 409 
Q 2525 409 2770 889 
Q 3016 1369 3016 2328 
Q 3016 3291 2770 3770 
Q 2525 4250 2034 4250 
z
M 2034 4750 
Q 2819 4750 3233 4129 
Q 3647 3509 3647 2328 
Q 3647 1150 3233 529 
Q 2819 -91 2034 -91 
Q 1250 -91 836 529 
Q 422 1150 422 2328 
Q 422 3509 836 4129 
Q 1250 4750 2034 4750 
z
" transform="scale(0.015625)"/>
       </defs>
       <use xlink:href="#DejaVuSans-2212"/>
       <use xlink:href="#DejaVuSans-32" x="83.789062"/>
       <use xlink:href="#DejaVuSans-30" x="147.412109"/>
      </g>
     </g>
    </g>
    <g id="xtick_2">
     <g id="line2d_2">
      <g>
       <use xlink:href="#m3c8855152b" x="141.118277" y="550.8" style="stroke: #000000; stroke-width: 0.8"/>
      </g>
     </g>
     <g id="text_2">
      <!-- −18 -->
      <g transform="translate(130.565933 565.398438)scale(0.1 -0.1)">
       <defs>
        <path id="DejaVuSans-31" d="M 794 531 
L 1825 531 
L 1825 4091 
L 703 3866 
L 703 4441 
L 1819 4666 
L 2450 4666 
L 2450 531 
L 3481 531 
L 3481 0 
L 794 0 
L 794 531 
z
" transform="scale(0.015625)"/>
        <path id="DejaVuSans-38" d="M 2034 2216 
Q 1584 2216 1326 1975 
Q 1069 1734 1069 1313 
Q 1069 891 1326 650 
Q 1584 409 2034 409 
Q 2484 409 2743 651 
Q 3003 894 3003 1313 
Q 3003 1734 2745 1975 
Q 2488 2216 2034 2216 
z
M 1403 2484 
Q 997 2584 770 2862 
Q 544 3141 544 3541 
Q 544 4100 942 4425 
Q 1341 4750 2034 4750 
Q 2731 4750 3128 4425 
Q 3525 4100 3525 3541 
Q 3525 3141 3298 2862 
Q 3072 2584 2669 2484 
Q 3125 2378 3379 2068 
Q 3634 1759 3634 1313 
Q 3634 634 3220 271 
Q 2806 -91 2034 -91 
Q 1263 -91 848 271 
Q 434 634 434 1313 
Q 434 1759 690 2068 
Q 947 2378 1403 2484 
z
M 1172 3481 
Q 1172 3119 1398 2916 
Q 1625 2713 2034 2713 
Q 2441 2713 2670 2916 
Q 2900 3119 2900 3481 
Q 2900 3844 2670 4047 
Q 2441 4250 2034 4250 
Q 1625 4250 1398 4047 
Q 1172 3844 1172 3481 
z
" transform="scale(0.015625)"/>
       </defs>
       <use xlink:href="#DejaVuSans-2212"/>
       <use xlink:href="#DejaVuSans-31" x="83.789062"/>
       <use xlink:href="#DejaVuSans-38" x="147.412109"/>
      </g>
     </g>
    </g>
    <g id="xtick_3">
     <g id="line2d_3">
      <g>
       <use xlink:href="#m3c8855152b" x="216.269792" y="550.8" style="stroke: #000000; stroke-width: 0.8"/>
      </g>
     </g>
     <g id="text_3">
      <!-- −16 -->
      <g transform="translate(205.717448 565.398438)scale(0.1 -0.1)">
       <defs>
        <path id="DejaVuSans-36" d="M 2113 2584 
Q 1688 2584 1439 2293 
Q 1191 2003 1191 1497 
Q 1191 994 1439 701 
Q 1688 409 2113 409 
Q 2538 409 2786 701 
Q 3034 994 3034 1497 
Q 3034 2003 2786 2293 
Q 2538 2584 2113 2584 
z
M 3366 4563 
L 3366 3988 
Q 3128 4100 2886 4159 
Q 2644 4219 2406 4219 
Q 1781 4219 1451 3797 
Q 1122 3375 1075 2522 
Q 1259 2794 1537 2939 
Q 1816 3084 2150 3084 
Q 2853 3084 3261 2657 
Q 3669 2231 3669 1497 
Q 3669 778 3244 343 
Q 2819 -91 2113 -91 
Q 1303 -91 875 529 
Q 447 1150 447 2328 
Q 447 3434 972 4092 
Q 1497 4750 2381 4750 
Q 2619 4750 2861 4703 
Q 3103 4656 3366 4563 
z
" transform="scale(0.015625)"/>
       </defs>
       <use xlink:href="#DejaVuSans-2212"/>
       <use xlink:href="#DejaVuSans-31" x="83.789062"/>
       <use xlink:href="#DejaVuSans-36" x="147.412109"/>
      </g>
     </g>
    </g>
    <g id="xtick_4">
     <g id="line2d_4">
      <g>
       <use xlink:href="#m3c8855152b" x="291.421307" y="550.8" style="stroke: #000000; stroke-width: 0.8"/>
      </g>
     </g>
     <g id="text_4">
      <!-- −14 -->
      <g transform="translate(280.868963 565.398438)scale(0.1 -0.1)">
       <defs>
        <path id="DejaVuSans-34" d="M 2419 4116 
L 825 1625 
L 2419 1625 
L 2419 4116 
z
M 2253 4666 
L 3047 4666 
L 3047 1625 
L 3713 1625 
L 3713 1100 
L 3047 1100 
L 3047 0 
L 2419 0 
L 2419 1100 
L 313 1100 
L 313 1709 
L 2253 4666 
z
" transform="scale(0.015625)"/>
       </defs>
       <use xlink:href="#DejaVuSans-2212"/>
       <use xlink:href="#DejaVuSans-31" x="83.789062"/>
       <use xlink:href="#DejaVuSans-34" x="147.412109"/>
      </g>
     </g>
    </g>
    <g id="xtick_5">
     <g id="line2d_5">
      <g>
       <use xlink:href="#m3c8855152b" x="366.572822" y="550.8" style="stroke: #000000; stroke-width: 0.8"/>
      </g>
     </g>
     <g id="text_5">
      <!-- −12 -->
      <g transform="translate(356.020478 565.398438)scale(0.1 -0.1)">
       <use xlink:href="#DejaVuSans-2212"/>
       <use xlink:href="#DejaVuSans-31" x="83.789062"/>
       <use xlink:href="#DejaVuSans-32" x="147.412109"/>
      </g>
     </g>
    </g>
    <g id="xtick_6">
     <g id="line2d_6">
      <g>
       <use xlink:href="#m3c8855152b" x="441.724337" y="550.8" style="stroke: #000000; stroke-width: 0.8"/>
      </g>
     </g>
     <g id="text_6">
      <!-- −10 -->
      <g transform="translate(431.171993 565.398438)scale(0.1 -0.1)">
       <use xlink:href="#DejaVuSans-2212"/>
       <use xlink:href="#DejaVuSans-31" x="83.789062"/>
       <use xlink:href="#DejaVuSans-30" x="147.412109"/>
      </g>
     </g>
    </g>
    <g id="xtick_7">
     <g id="line2d_7">
      <g>
       <use xlink:href="#m3c8855152b" x="516.875852" y="550.8" style="stroke: #000000; stroke-width: 0.8"/>
      </g>
     </g>
     <g id="text_7">
      <!-- −8 -->
      <g transform="translate(509.504759 565.398438)scale(0.1 -0.1)">
       <use xlink:href="#DejaVuSans-2212"/>
       <use xlink:href="#DejaVuSans-38" x="83.789062"/>
      </g>
     </g>
    </g>
    <g id="xtick_8">
     <g id="line2d_8">
      <g>
       <use xlink:href="#m3c8855152b" x="592.027367" y="550.8" style="stroke: #000000; stroke-width: 0.8"/>
      </g>
     </g>
     <g id="text_8">
      <!-- −6 -->
      <g transform="translate(584.656274 565.398438)scale(0.1 -0.1)">
       <use xlink:href="#DejaVuSans-2212"/>
       <use xlink:href="#DejaVuSans-36" x="83.789062"/>
      </g>
     </g>
    </g>
    <g id="text_9">
     <!-- tsne-pca500-one -->
     <g transform="translate(277.255469 579.076563)scale(0.1 -0.1)">
      <defs>
       <path id="DejaVuSans-74" d="M 1172 4494 
L 1172 3500 
L 2356 3500 
L 2356 3053 
L 1172 3053 
L 1172 1153 
Q 1172 725 1289 603 
Q 1406 481 1766 481 
L 2356 481 
L 2356 0 
L 1766 0 
Q 1100 0 847 248 
Q 594 497 594 1153 
L 594 3053 
L 172 3053 
L 172 3500 
L 594 3500 
L 594 4494 
L 1172 4494 
z
" transform="scale(0.015625)"/>
       <path id="DejaVuSans-73" d="M 2834 3397 
L 2834 2853 
Q 2591 2978 2328 3040 
Q 2066 3103 1784 3103 
Q 1356 3103 1142 2972 
Q 928 2841 928 2578 
Q 928 2378 1081 2264 
Q 1234 2150 1697 2047 
L 1894 2003 
Q 2506 1872 2764 1633 
Q 3022 1394 3022 966 
Q 3022 478 2636 193 
Q 2250 -91 1575 -91 
Q 1294 -91 989 -36 
Q 684 19 347 128 
L 347 722 
Q 666 556 975 473 
Q 1284 391 1588 391 
Q 1994 391 2212 530 
Q 2431 669 2431 922 
Q 2431 1156 2273 1281 
Q 2116 1406 1581 1522 
L 1381 1569 
Q 847 1681 609 1914 
Q 372 2147 372 2553 
Q 372 3047 722 3315 
Q 1072 3584 1716 3584 
Q 2034 3584 2315 3537 
Q 2597 3491 2834 3397 
z
" transform="scale(0.015625)"/>
       <path id="DejaVuSans-6e" d="M 3513 2113 
L 3513 0 
L 2938 0 
L 2938 2094 
Q 2938 2591 2744 2837 
Q 2550 3084 2163 3084 
Q 1697 3084 1428 2787 
Q 1159 2491 1159 1978 
L 1159 0 
L 581 0 
L 581 3500 
L 1159 3500 
L 1159 2956 
Q 1366 3272 1645 3428 
Q 1925 3584 2291 3584 
Q 2894 3584 3203 3211 
Q 3513 2838 3513 2113 
z
" transform="scale(0.015625)"/>
       <path id="DejaVuSans-65" d="M 3597 1894 
L 3597 1613 
L 953 1613 
Q 991 1019 1311 708 
Q 1631 397 2203 397 
Q 2534 397 2845 478 
Q 3156 559 3463 722 
L 3463 178 
Q 3153 47 2828 -22 
Q 2503 -91 2169 -91 
Q 1331 -91 842 396 
Q 353 884 353 1716 
Q 353 2575 817 3079 
Q 1281 3584 2069 3584 
Q 2775 3584 3186 3129 
Q 3597 2675 3597 1894 
z
M 3022 2063 
Q 3016 2534 2758 2815 
Q 2500 3097 2075 3097 
Q 1594 3097 1305 2825 
Q 1016 2553 972 2059 
L 3022 2063 
z
" transform="scale(0.015625)"/>
       <path id="DejaVuSans-2d" d="M 313 2009 
L 1997 2009 
L 1997 1497 
L 313 1497 
L 313 2009 
z
" transform="scale(0.015625)"/>
       <path id="DejaVuSans-70" d="M 1159 525 
L 1159 -1331 
L 581 -1331 
L 581 3500 
L 1159 3500 
L 1159 2969 
Q 1341 3281 1617 3432 
Q 1894 3584 2278 3584 
Q 2916 3584 3314 3078 
Q 3713 2572 3713 1747 
Q 3713 922 3314 415 
Q 2916 -91 2278 -91 
Q 1894 -91 1617 61 
Q 1341 213 1159 525 
z
M 3116 1747 
Q 3116 2381 2855 2742 
Q 2594 3103 2138 3103 
Q 1681 3103 1420 2742 
Q 1159 2381 1159 1747 
Q 1159 1113 1420 752 
Q 1681 391 2138 391 
Q 2594 391 2855 752 
Q 3116 1113 3116 1747 
z
" transform="scale(0.015625)"/>
       <path id="DejaVuSans-63" d="M 3122 3366 
L 3122 2828 
Q 2878 2963 2633 3030 
Q 2388 3097 2138 3097 
Q 1578 3097 1268 2742 
Q 959 2388 959 1747 
Q 959 1106 1268 751 
Q 1578 397 2138 397 
Q 2388 397 2633 464 
Q 2878 531 3122 666 
L 3122 134 
Q 2881 22 2623 -34 
Q 2366 -91 2075 -91 
Q 1284 -91 818 406 
Q 353 903 353 1747 
Q 353 2603 823 3093 
Q 1294 3584 2113 3584 
Q 2378 3584 2631 3529 
Q 2884 3475 3122 3366 
z
" transform="scale(0.015625)"/>
       <path id="DejaVuSans-61" d="M 2194 1759 
Q 1497 1759 1228 1600 
Q 959 1441 959 1056 
Q 959 750 1161 570 
Q 1363 391 1709 391 
Q 2188 391 2477 730 
Q 2766 1069 2766 1631 
L 2766 1759 
L 2194 1759 
z
M 3341 1997 
L 3341 0 
L 2766 0 
L 2766 531 
Q 2569 213 2275 61 
Q 1981 -91 1556 -91 
Q 1019 -91 701 211 
Q 384 513 384 1019 
Q 384 1609 779 1909 
Q 1175 2209 1959 2209 
L 2766 2209 
L 2766 2266 
Q 2766 2663 2505 2880 
Q 2244 3097 1772 3097 
Q 1472 3097 1187 3025 
Q 903 2953 641 2809 
L 641 3341 
Q 956 3463 1253 3523 
Q 1550 3584 1831 3584 
Q 2591 3584 2966 3190 
Q 3341 2797 3341 1997 
z
" transform="scale(0.015625)"/>
       <path id="DejaVuSans-35" d="M 691 4666 
L 3169 4666 
L 3169 4134 
L 1269 4134 
L 1269 2991 
Q 1406 3038 1543 3061 
Q 1681 3084 1819 3084 
Q 2600 3084 3056 2656 
Q 3513 2228 3513 1497 
Q 3513 744 3044 326 
Q 2575 -91 1722 -91 
Q 1428 -91 1123 -41 
Q 819 9 494 109 
L 494 744 
Q 775 591 1075 516 
Q 1375 441 1709 441 
Q 2250 441 2565 725 
Q 2881 1009 2881 1497 
Q 2881 1984 2565 2268 
Q 2250 2553 1709 2553 
Q 1456 2553 1204 2497 
Q 953 2441 691 2322 
L 691 4666 
z
" transform="scale(0.015625)"/>
       <path id="DejaVuSans-6f" d="M 1959 3097 
Q 1497 3097 1228 2736 
Q 959 2375 959 1747 
Q 959 1119 1226 758 
Q 1494 397 1959 397 
Q 2419 397 2687 759 
Q 2956 1122 2956 1747 
Q 2956 2369 2687 2733 
Q 2419 3097 1959 3097 
z
M 1959 3584 
Q 2709 3584 3137 3096 
Q 3566 2609 3566 1747 
Q 3566 888 3137 398 
Q 2709 -91 1959 -91 
Q 1206 -91 779 398 
Q 353 888 353 1747 
Q 353 2609 779 3096 
Q 1206 3584 1959 3584 
z
" transform="scale(0.015625)"/>
      </defs>
      <use xlink:href="#DejaVuSans-74"/>
      <use xlink:href="#DejaVuSans-73" x="39.208984"/>
      <use xlink:href="#DejaVuSans-6e" x="91.308594"/>
      <use xlink:href="#DejaVuSans-65" x="154.6875"/>
      <use xlink:href="#DejaVuSans-2d" x="216.210938"/>
      <use xlink:href="#DejaVuSans-70" x="252.294922"/>
      <use xlink:href="#DejaVuSans-63" x="315.771484"/>
      <use xlink:href="#DejaVuSans-61" x="370.751953"/>
      <use xlink:href="#DejaVuSans-35" x="432.03125"/>
      <use xlink:href="#DejaVuSans-30" x="495.654297"/>
      <use xlink:href="#DejaVuSans-30" x="559.277344"/>
      <use xlink:href="#DejaVuSans-2d" x="622.900391"/>
      <use xlink:href="#DejaVuSans-6f" x="660.859375"/>
      <use xlink:href="#DejaVuSans-6e" x="722.041016"/>
      <use xlink:href="#DejaVuSans-65" x="785.419922"/>
     </g>
    </g>
   </g>
   <g id="matplotlib.axis_2">
    <g id="ytick_1">
     <g id="line2d_9">
      <defs>
       <path id="mf4f00750d9" d="M 0 0 
L -3.5 0 
" style="stroke: #000000; stroke-width: 0.8"/>
      </defs>
      <g>
       <use xlink:href="#mf4f00750d9" x="40.603125" y="526.090909" style="stroke: #000000; stroke-width: 0.8"/>
      </g>
     </g>
     <g id="text_10">
      <!-- 34 -->
      <g transform="translate(20.878125 529.890128)scale(0.1 -0.1)">
       <defs>
        <path id="DejaVuSans-33" d="M 2597 2516 
Q 3050 2419 3304 2112 
Q 3559 1806 3559 1356 
Q 3559 666 3084 287 
Q 2609 -91 1734 -91 
Q 1441 -91 1130 -33 
Q 819 25 488 141 
L 488 750 
Q 750 597 1062 519 
Q 1375 441 1716 441 
Q 2309 441 2620 675 
Q 2931 909 2931 1356 
Q 2931 1769 2642 2001 
Q 2353 2234 1838 2234 
L 1294 2234 
L 1294 2753 
L 1863 2753 
Q 2328 2753 2575 2939 
Q 2822 3125 2822 3475 
Q 2822 3834 2567 4026 
Q 2313 4219 1838 4219 
Q 1578 4219 1281 4162 
Q 984 4106 628 3988 
L 628 4550 
Q 988 4650 1302 4700 
Q 1616 4750 1894 4750 
Q 2613 4750 3031 4423 
Q 3450 4097 3450 3541 
Q 3450 3153 3228 2886 
Q 3006 2619 2597 2516 
z
" transform="scale(0.015625)"/>
       </defs>
       <use xlink:href="#DejaVuSans-33"/>
       <use xlink:href="#DejaVuSans-34" x="63.623047"/>
      </g>
     </g>
    </g>
    <g id="ytick_2">
     <g id="line2d_10">
      <g>
       <use xlink:href="#mf4f00750d9" x="40.603125" y="464.318182" style="stroke: #000000; stroke-width: 0.8"/>
      </g>
     </g>
     <g id="text_11">
      <!-- 36 -->
      <g transform="translate(20.878125 468.117401)scale(0.1 -0.1)">
       <use xlink:href="#DejaVuSans-33"/>
       <use xlink:href="#DejaVuSans-36" x="63.623047"/>
      </g>
     </g>
    </g>
    <g id="ytick_3">
     <g id="line2d_11">
      <g>
       <use xlink:href="#mf4f00750d9" x="40.603125" y="402.545455" style="stroke: #000000; stroke-width: 0.8"/>
      </g>
     </g>
     <g id="text_12">
      <!-- 38 -->
      <g transform="translate(20.878125 406.344673)scale(0.1 -0.1)">
       <use xlink:href="#DejaVuSans-33"/>
       <use xlink:href="#DejaVuSans-38" x="63.623047"/>
      </g>
     </g>
    </g>
    <g id="ytick_4">
     <g id="line2d_12">
      <g>
       <use xlink:href="#mf4f00750d9" x="40.603125" y="340.772727" style="stroke: #000000; stroke-width: 0.8"/>
      </g>
     </g>
     <g id="text_13">
      <!-- 40 -->
      <g transform="translate(20.878125 344.571946)scale(0.1 -0.1)">
       <use xlink:href="#DejaVuSans-34"/>
       <use xlink:href="#DejaVuSans-30" x="63.623047"/>
      </g>
     </g>
    </g>
    <g id="ytick_5">
     <g id="line2d_13">
      <g>
       <use xlink:href="#mf4f00750d9" x="40.603125" y="279" style="stroke: #000000; stroke-width: 0.8"/>
      </g>
     </g>
     <g id="text_14">
      <!-- 42 -->
      <g transform="translate(20.878125 282.799219)scale(0.1 -0.1)">
       <use xlink:href="#DejaVuSans-34"/>
       <use xlink:href="#DejaVuSans-32" x="63.623047"/>
      </g>
     </g>
    </g>
    <g id="ytick_6">
     <g id="line2d_14">
      <g>
       <use xlink:href="#mf4f00750d9" x="40.603125" y="217.227273" style="stroke: #000000; stroke-width: 0.8"/>
      </g>
     </g>
     <g id="text_15">
      <!-- 44 -->
      <g transform="translate(20.878125 221.026491)scale(0.1 -0.1)">
       <use xlink:href="#DejaVuSans-34"/>
       <use xlink:href="#DejaVuSans-34" x="63.623047"/>
      </g>
     </g>
    </g>
    <g id="ytick_7">
     <g id="line2d_15">
      <g>
       <use xlink:href="#mf4f00750d9" x="40.603125" y="155.454545" style="stroke: #000000; stroke-width: 0.8"/>
      </g>
     </g>
     <g id="text_16">
      <!-- 46 -->
      <g transform="translate(20.878125 159.253764)scale(0.1 -0.1)">
       <use xlink:href="#DejaVuSans-34"/>
       <use xlink:href="#DejaVuSans-36" x="63.623047"/>
      </g>
     </g>
    </g>
    <g id="ytick_8">
     <g id="line2d_16">
      <g>
       <use xlink:href="#mf4f00750d9" x="40.603125" y="93.681818" style="stroke: #000000; stroke-width: 0.8"/>
      </g>
     </g>
     <g id="text_17">
      <!-- 48 -->
      <g transform="translate(20.878125 97.481037)scale(0.1 -0.1)">
       <use xlink:href="#DejaVuSans-34"/>
       <use xlink:href="#DejaVuSans-38" x="63.623047"/>
      </g>
     </g>
    </g>
    <g id="ytick_9">
     <g id="line2d_17">
      <g>
       <use xlink:href="#mf4f00750d9" x="40.603125" y="31.909091" style="stroke: #000000; stroke-width: 0.8"/>
      </g>
     </g>
     <g id="text_18">
      <!-- 50 -->
      <g transform="translate(20.878125 35.70831)scale(0.1 -0.1)">
       <use xlink:href="#DejaVuSans-35"/>
       <use xlink:href="#DejaVuSans-30" x="63.623047"/>
      </g>
     </g>
    </g>
    <g id="text_19">
     <!-- tsne-pca500-two -->
     <g transform="translate(14.798437 321.057813)rotate(-90)scale(0.1 -0.1)">
      <defs>
       <path id="DejaVuSans-77" d="M 269 3500 
L 844 3500 
L 1563 769 
L 2278 3500 
L 2956 3500 
L 3675 769 
L 4391 3500 
L 4966 3500 
L 4050 0 
L 3372 0 
L 2619 2869 
L 1863 0 
L 1184 0 
L 269 3500 
z
" transform="scale(0.015625)"/>
      </defs>
      <use xlink:href="#DejaVuSans-74"/>
      <use xlink:href="#DejaVuSans-73" x="39.208984"/>
      <use xlink:href="#DejaVuSans-6e" x="91.308594"/>
      <use xlink:href="#DejaVuSans-65" x="154.6875"/>
      <use xlink:href="#DejaVuSans-2d" x="216.210938"/>
      <use xlink:href="#DejaVuSans-70" x="252.294922"/>
      <use xlink:href="#DejaVuSans-63" x="315.771484"/>
      <use xlink:href="#DejaVuSans-61" x="370.751953"/>
      <use xlink:href="#DejaVuSans-35" x="432.03125"/>
      <use xlink:href="#DejaVuSans-30" x="495.654297"/>
      <use xlink:href="#DejaVuSans-30" x="559.277344"/>
      <use xlink:href="#DejaVuSans-2d" x="622.900391"/>
      <use xlink:href="#DejaVuSans-74" x="658.984375"/>
      <use xlink:href="#DejaVuSans-77" x="698.193359"/>
      <use xlink:href="#DejaVuSans-6f" x="779.980469"/>
     </g>
    </g>
   </g>
   <g id="LineCollection_1">
    <path d="M 65.966761 526.090909 
L 573.239489 526.090909 
" clip-path="url(#p7e6b0542aa)" style="fill: none; stroke: #000000; stroke-width: 1.5"/>
   </g>
   <g id="LineCollection_2">
    <path d="M 65.966761 31.909091 
L 573.239489 31.909091 
" clip-path="url(#p7e6b0542aa)" style="fill: none; stroke: #000000; stroke-width: 1.5"/>
   </g>
   <g id="patch_3">
    <path d="M 40.603125 550.8 
L 40.603125 7.2 
" style="fill: none; stroke: #000000; stroke-width: 0.8; stroke-linejoin: miter; stroke-linecap: square"/>
   </g>
   <g id="patch_4">
    <path d="M 598.603125 550.8 
L 598.603125 7.2 
" style="fill: none; stroke: #000000; stroke-width: 0.8; stroke-linejoin: miter; stroke-linecap: square"/>
   </g>
   <g id="patch_5">
    <path d="M 40.603125 550.8 
L 598.603125 550.8 
" style="fill: none; stroke: #000000; stroke-width: 0.8; stroke-linejoin: miter; stroke-linecap: square"/>
   </g>
   <g id="patch_6">
    <path d="M 40.603125 7.2 
L 598.603125 7.2 
" style="fill: none; stroke: #000000; stroke-width: 0.8; stroke-linejoin: miter; stroke-linecap: square"/>
   </g>
   <g id="patch_7">
    <path d="M 286.708361 451.699975 
Q 271.009183 452.598505 255.310006 453.497035 
" style="fill: none; opacity: 0.5; stroke: #808080; stroke-linecap: round"/>
   </g>
   <g id="text_20">
    <!-- K355_RS0119855 -->
    <g transform="translate(253.316783 453.611115)scale(0.08 -0.08)">
     <defs>
      <path id="DejaVuSans-4b" d="M 628 4666 
L 1259 4666 
L 1259 2694 
L 3353 4666 
L 4166 4666 
L 1850 2491 
L 4331 0 
L 3500 0 
L 1259 2247 
L 1259 0 
L 628 0 
L 628 4666 
z
" transform="scale(0.015625)"/>
      <path id="DejaVuSans-5f" d="M 3263 -1063 
L 3263 -1509 
L -63 -1509 
L -63 -1063 
L 3263 -1063 
z
" transform="scale(0.015625)"/>
      <path id="DejaVuSans-52" d="M 2841 2188 
Q 3044 2119 3236 1894 
Q 3428 1669 3622 1275 
L 4263 0 
L 3584 0 
L 2988 1197 
Q 2756 1666 2539 1819 
Q 2322 1972 1947 1972 
L 1259 1972 
L 1259 0 
L 628 0 
L 628 4666 
L 2053 4666 
Q 2853 4666 3247 4331 
Q 3641 3997 3641 3322 
Q 3641 2881 3436 2590 
Q 3231 2300 2841 2188 
z
M 1259 4147 
L 1259 2491 
L 2053 2491 
Q 2509 2491 2742 2702 
Q 2975 2913 2975 3322 
Q 2975 3731 2742 3939 
Q 2509 4147 2053 4147 
L 1259 4147 
z
" transform="scale(0.015625)"/>
      <path id="DejaVuSans-53" d="M 3425 4513 
L 3425 3897 
Q 3066 4069 2747 4153 
Q 2428 4238 2131 4238 
Q 1616 4238 1336 4038 
Q 1056 3838 1056 3469 
Q 1056 3159 1242 3001 
Q 1428 2844 1947 2747 
L 2328 2669 
Q 3034 2534 3370 2195 
Q 3706 1856 3706 1288 
Q 3706 609 3251 259 
Q 2797 -91 1919 -91 
Q 1588 -91 1214 -16 
Q 841 59 441 206 
L 441 856 
Q 825 641 1194 531 
Q 1563 422 1919 422 
Q 2459 422 2753 634 
Q 3047 847 3047 1241 
Q 3047 1584 2836 1778 
Q 2625 1972 2144 2069 
L 1759 2144 
Q 1053 2284 737 2584 
Q 422 2884 422 3419 
Q 422 4038 858 4394 
Q 1294 4750 2059 4750 
Q 2388 4750 2728 4690 
Q 3069 4631 3425 4513 
z
" transform="scale(0.015625)"/>
      <path id="DejaVuSans-39" d="M 703 97 
L 703 672 
Q 941 559 1184 500 
Q 1428 441 1663 441 
Q 2288 441 2617 861 
Q 2947 1281 2994 2138 
Q 2813 1869 2534 1725 
Q 2256 1581 1919 1581 
Q 1219 1581 811 2004 
Q 403 2428 403 3163 
Q 403 3881 828 4315 
Q 1253 4750 1959 4750 
Q 2769 4750 3195 4129 
Q 3622 3509 3622 2328 
Q 3622 1225 3098 567 
Q 2575 -91 1691 -91 
Q 1453 -91 1209 -44 
Q 966 3 703 97 
z
M 1959 2075 
Q 2384 2075 2632 2365 
Q 2881 2656 2881 3163 
Q 2881 3666 2632 3958 
Q 2384 4250 1959 4250 
Q 1534 4250 1286 3958 
Q 1038 3666 1038 3163 
Q 1038 2656 1286 2365 
Q 1534 2075 1959 2075 
z
" transform="scale(0.015625)"/>
     </defs>
     <use xlink:href="#DejaVuSans-4b"/>
     <use xlink:href="#DejaVuSans-33" x="65.576172"/>
     <use xlink:href="#DejaVuSans-35" x="129.199219"/>
     <use xlink:href="#DejaVuSans-35" x="192.822266"/>
     <use xlink:href="#DejaVuSans-5f" x="256.445312"/>
     <use xlink:href="#DejaVuSans-52" x="306.445312"/>
     <use xlink:href="#DejaVuSans-53" x="375.927734"/>
     <use xlink:href="#DejaVuSans-30" x="439.404297"/>
     <use xlink:href="#DejaVuSans-31" x="503.027344"/>
     <use xlink:href="#DejaVuSans-31" x="566.650391"/>
     <use xlink:href="#DejaVuSans-39" x="630.273438"/>
     <use xlink:href="#DejaVuSans-38" x="693.896484"/>
     <use xlink:href="#DejaVuSans-35" x="757.519531"/>
     <use xlink:href="#DejaVuSans-35" x="821.142578"/>
    </g>
   </g>
   <g id="patch_8">
    <path d="M 245.784158 189.949239 
Q 232.711294 190.827847 219.63843 191.706456 
" style="fill: none; opacity: 0.5; stroke: #808080; stroke-linecap: round"/>
   </g>
   <g id="text_21">
    <!-- GDIA_RS09815 -->
    <g transform="translate(217.642547 191.840597)scale(0.08 -0.08)">
     <defs>
      <path id="DejaVuSans-47" d="M 3809 666 
L 3809 1919 
L 2778 1919 
L 2778 2438 
L 4434 2438 
L 4434 434 
Q 4069 175 3628 42 
Q 3188 -91 2688 -91 
Q 1594 -91 976 548 
Q 359 1188 359 2328 
Q 359 3472 976 4111 
Q 1594 4750 2688 4750 
Q 3144 4750 3555 4637 
Q 3966 4525 4313 4306 
L 4313 3634 
Q 3963 3931 3569 4081 
Q 3175 4231 2741 4231 
Q 1884 4231 1454 3753 
Q 1025 3275 1025 2328 
Q 1025 1384 1454 906 
Q 1884 428 2741 428 
Q 3075 428 3337 486 
Q 3600 544 3809 666 
z
" transform="scale(0.015625)"/>
      <path id="DejaVuSans-44" d="M 1259 4147 
L 1259 519 
L 2022 519 
Q 2988 519 3436 956 
Q 3884 1394 3884 2338 
Q 3884 3275 3436 3711 
Q 2988 4147 2022 4147 
L 1259 4147 
z
M 628 4666 
L 1925 4666 
Q 3281 4666 3915 4102 
Q 4550 3538 4550 2338 
Q 4550 1131 3912 565 
Q 3275 0 1925 0 
L 628 0 
L 628 4666 
z
" transform="scale(0.015625)"/>
      <path id="DejaVuSans-49" d="M 628 4666 
L 1259 4666 
L 1259 0 
L 628 0 
L 628 4666 
z
" transform="scale(0.015625)"/>
      <path id="DejaVuSans-41" d="M 2188 4044 
L 1331 1722 
L 3047 1722 
L 2188 4044 
z
M 1831 4666 
L 2547 4666 
L 4325 0 
L 3669 0 
L 3244 1197 
L 1141 1197 
L 716 0 
L 50 0 
L 1831 4666 
z
" transform="scale(0.015625)"/>
     </defs>
     <use xlink:href="#DejaVuSans-47"/>
     <use xlink:href="#DejaVuSans-44" x="77.490234"/>
     <use xlink:href="#DejaVuSans-49" x="154.492188"/>
     <use xlink:href="#DejaVuSans-41" x="183.984375"/>
     <use xlink:href="#DejaVuSans-5f" x="252.392578"/>
     <use xlink:href="#DejaVuSans-52" x="302.392578"/>
     <use xlink:href="#DejaVuSans-53" x="371.875"/>
     <use xlink:href="#DejaVuSans-30" x="435.351562"/>
     <use xlink:href="#DejaVuSans-39" x="498.974609"/>
     <use xlink:href="#DejaVuSans-38" x="562.597656"/>
     <use xlink:href="#DejaVuSans-31" x="626.220703"/>
     <use xlink:href="#DejaVuSans-35" x="689.84375"/>
    </g>
   </g>
   <g id="patch_9">
    <path d="M 367.478022 479.766073 
Q 351.542836 480.666001 335.607649 481.565928 
" style="fill: none; opacity: 0.5; stroke: #808080; stroke-linecap: round"/>
   </g>
   <g id="text_22">
    <!-- G568_RS0115095 -->
    <g transform="translate(333.610841 481.678696)scale(0.08 -0.08)">
     <use xlink:href="#DejaVuSans-47"/>
     <use xlink:href="#DejaVuSans-35" x="77.490234"/>
     <use xlink:href="#DejaVuSans-36" x="141.113281"/>
     <use xlink:href="#DejaVuSans-38" x="204.736328"/>
     <use xlink:href="#DejaVuSans-5f" x="268.359375"/>
     <use xlink:href="#DejaVuSans-52" x="318.359375"/>
     <use xlink:href="#DejaVuSans-53" x="387.841797"/>
     <use xlink:href="#DejaVuSans-30" x="451.318359"/>
     <use xlink:href="#DejaVuSans-31" x="514.941406"/>
     <use xlink:href="#DejaVuSans-31" x="578.564453"/>
     <use xlink:href="#DejaVuSans-35" x="642.1875"/>
     <use xlink:href="#DejaVuSans-30" x="705.810547"/>
     <use xlink:href="#DejaVuSans-39" x="769.433594"/>
     <use xlink:href="#DejaVuSans-35" x="833.056641"/>
    </g>
   </g>
   <g id="patch_10">
    <path d="M 586.2525 502.282449 
Q 570.317313 503.182376 554.382127 504.082304 
" style="fill: none; opacity: 0.5; stroke: #808080; stroke-linecap: round"/>
   </g>
   <g id="text_23">
    <!-- G568_RS0108480 -->
    <g transform="translate(552.385319 504.195072)scale(0.08 -0.08)">
     <use xlink:href="#DejaVuSans-47"/>
     <use xlink:href="#DejaVuSans-35" x="77.490234"/>
     <use xlink:href="#DejaVuSans-36" x="141.113281"/>
     <use xlink:href="#DejaVuSans-38" x="204.736328"/>
     <use xlink:href="#DejaVuSans-5f" x="268.359375"/>
     <use xlink:href="#DejaVuSans-52" x="318.359375"/>
     <use xlink:href="#DejaVuSans-53" x="387.841797"/>
     <use xlink:href="#DejaVuSans-30" x="451.318359"/>
     <use xlink:href="#DejaVuSans-31" x="514.941406"/>
     <use xlink:href="#DejaVuSans-30" x="578.564453"/>
     <use xlink:href="#DejaVuSans-38" x="642.1875"/>
     <use xlink:href="#DejaVuSans-34" x="705.810547"/>
     <use xlink:href="#DejaVuSans-38" x="769.433594"/>
     <use xlink:href="#DejaVuSans-30" x="833.056641"/>
    </g>
   </g>
   <g id="patch_11">
    <path d="M 574.105328 500.293127 
Q 559.728933 501.182595 545.352538 502.072063 
" style="fill: none; opacity: 0.5; stroke: #808080; stroke-linecap: round"/>
   </g>
   <g id="text_24">
    <!-- SSE37_RS08100 -->
    <g transform="translate(543.359622 502.195365)scale(0.08 -0.08)">
     <defs>
      <path id="DejaVuSans-45" d="M 628 4666 
L 3578 4666 
L 3578 4134 
L 1259 4134 
L 1259 2753 
L 3481 2753 
L 3481 2222 
L 1259 2222 
L 1259 531 
L 3634 531 
L 3634 0 
L 628 0 
L 628 4666 
z
" transform="scale(0.015625)"/>
      <path id="DejaVuSans-37" d="M 525 4666 
L 3525 4666 
L 3525 4397 
L 1831 0 
L 1172 0 
L 2766 4134 
L 525 4134 
L 525 4666 
z
" transform="scale(0.015625)"/>
     </defs>
     <use xlink:href="#DejaVuSans-53"/>
     <use xlink:href="#DejaVuSans-53" x="63.476562"/>
     <use xlink:href="#DejaVuSans-45" x="126.953125"/>
     <use xlink:href="#DejaVuSans-33" x="190.136719"/>
     <use xlink:href="#DejaVuSans-37" x="253.759766"/>
     <use xlink:href="#DejaVuSans-5f" x="317.382812"/>
     <use xlink:href="#DejaVuSans-52" x="367.382812"/>
     <use xlink:href="#DejaVuSans-53" x="436.865234"/>
     <use xlink:href="#DejaVuSans-30" x="500.341797"/>
     <use xlink:href="#DejaVuSans-38" x="563.964844"/>
     <use xlink:href="#DejaVuSans-31" x="627.587891"/>
     <use xlink:href="#DejaVuSans-30" x="691.210938"/>
     <use xlink:href="#DejaVuSans-30" x="754.833984"/>
    </g>
   </g>
   <g id="patch_12">
    <path d="M 332.716369 492.857637 
Q 318.339974 493.747105 303.963579 494.636573 
" style="fill: none; opacity: 0.5; stroke: #808080; stroke-linecap: round"/>
   </g>
   <g id="text_25">
    <!-- SSE37_RS16260 -->
    <g transform="translate(301.970663 494.759874)scale(0.08 -0.08)">
     <use xlink:href="#DejaVuSans-53"/>
     <use xlink:href="#DejaVuSans-53" x="63.476562"/>
     <use xlink:href="#DejaVuSans-45" x="126.953125"/>
     <use xlink:href="#DejaVuSans-33" x="190.136719"/>
     <use xlink:href="#DejaVuSans-37" x="253.759766"/>
     <use xlink:href="#DejaVuSans-5f" x="317.382812"/>
     <use xlink:href="#DejaVuSans-52" x="367.382812"/>
     <use xlink:href="#DejaVuSans-53" x="436.865234"/>
     <use xlink:href="#DejaVuSans-31" x="500.341797"/>
     <use xlink:href="#DejaVuSans-36" x="563.964844"/>
     <use xlink:href="#DejaVuSans-32" x="627.587891"/>
     <use xlink:href="#DejaVuSans-36" x="691.210938"/>
     <use xlink:href="#DejaVuSans-30" x="754.833984"/>
    </g>
   </g>
   <g id="patch_13">
    <path d="M 351.201926 460.394182 
Q 336.333147 461.28713 321.464367 462.180077 
" style="fill: none; opacity: 0.5; stroke: #808080; stroke-linecap: round"/>
   </g>
   <g id="text_26">
    <!-- RUTHE_RS05685 -->
    <g transform="translate(319.469468 462.299882)scale(0.08 -0.08)">
     <defs>
      <path id="DejaVuSans-55" d="M 556 4666 
L 1191 4666 
L 1191 1831 
Q 1191 1081 1462 751 
Q 1734 422 2344 422 
Q 2950 422 3222 751 
Q 3494 1081 3494 1831 
L 3494 4666 
L 4128 4666 
L 4128 1753 
Q 4128 841 3676 375 
Q 3225 -91 2344 -91 
Q 1459 -91 1007 375 
Q 556 841 556 1753 
L 556 4666 
z
" transform="scale(0.015625)"/>
      <path id="DejaVuSans-54" d="M -19 4666 
L 3928 4666 
L 3928 4134 
L 2272 4134 
L 2272 0 
L 1638 0 
L 1638 4134 
L -19 4134 
L -19 4666 
z
" transform="scale(0.015625)"/>
      <path id="DejaVuSans-48" d="M 628 4666 
L 1259 4666 
L 1259 2753 
L 3553 2753 
L 3553 4666 
L 4184 4666 
L 4184 0 
L 3553 0 
L 3553 2222 
L 1259 2222 
L 1259 0 
L 628 0 
L 628 4666 
z
" transform="scale(0.015625)"/>
     </defs>
     <use xlink:href="#DejaVuSans-52"/>
     <use xlink:href="#DejaVuSans-55" x="69.482422"/>
     <use xlink:href="#DejaVuSans-54" x="142.675781"/>
     <use xlink:href="#DejaVuSans-48" x="203.759766"/>
     <use xlink:href="#DejaVuSans-45" x="278.955078"/>
     <use xlink:href="#DejaVuSans-5f" x="342.138672"/>
     <use xlink:href="#DejaVuSans-52" x="392.138672"/>
     <use xlink:href="#DejaVuSans-53" x="461.621094"/>
     <use xlink:href="#DejaVuSans-30" x="525.097656"/>
     <use xlink:href="#DejaVuSans-35" x="588.720703"/>
     <use xlink:href="#DejaVuSans-36" x="652.34375"/>
     <use xlink:href="#DejaVuSans-38" x="715.966797"/>
     <use xlink:href="#DejaVuSans-35" x="779.589844"/>
    </g>
   </g>
   <g id="patch_14">
    <path d="M 450.801623 476.950756 
Q 436.07023 477.842775 421.338838 478.734795 
" style="fill: none; opacity: 0.5; stroke: #808080; stroke-linecap: round"/>
   </g>
   <g id="text_27">
    <!-- BG454_RS16400 -->
    <g transform="translate(419.345982 478.855467)scale(0.08 -0.08)">
     <defs>
      <path id="DejaVuSans-42" d="M 1259 2228 
L 1259 519 
L 2272 519 
Q 2781 519 3026 730 
Q 3272 941 3272 1375 
Q 3272 1813 3026 2020 
Q 2781 2228 2272 2228 
L 1259 2228 
z
M 1259 4147 
L 1259 2741 
L 2194 2741 
Q 2656 2741 2882 2914 
Q 3109 3088 3109 3444 
Q 3109 3797 2882 3972 
Q 2656 4147 2194 4147 
L 1259 4147 
z
M 628 4666 
L 2241 4666 
Q 2963 4666 3353 4366 
Q 3744 4066 3744 3513 
Q 3744 3084 3544 2831 
Q 3344 2578 2956 2516 
Q 3422 2416 3680 2098 
Q 3938 1781 3938 1306 
Q 3938 681 3513 340 
Q 3088 0 2303 0 
L 628 0 
L 628 4666 
z
" transform="scale(0.015625)"/>
     </defs>
     <use xlink:href="#DejaVuSans-42"/>
     <use xlink:href="#DejaVuSans-47" x="66.853516"/>
     <use xlink:href="#DejaVuSans-34" x="144.34375"/>
     <use xlink:href="#DejaVuSans-35" x="207.966797"/>
     <use xlink:href="#DejaVuSans-34" x="271.589844"/>
     <use xlink:href="#DejaVuSans-5f" x="335.212891"/>
     <use xlink:href="#DejaVuSans-52" x="385.212891"/>
     <use xlink:href="#DejaVuSans-53" x="454.695312"/>
     <use xlink:href="#DejaVuSans-31" x="518.171875"/>
     <use xlink:href="#DejaVuSans-36" x="581.794922"/>
     <use xlink:href="#DejaVuSans-34" x="645.417969"/>
     <use xlink:href="#DejaVuSans-30" x="709.041016"/>
     <use xlink:href="#DejaVuSans-30" x="772.664062"/>
    </g>
   </g>
   <g id="patch_15">
    <path d="M 362.508663 431.678976 
Q 347.77727 432.570995 333.045878 433.463014 
" style="fill: none; opacity: 0.5; stroke: #808080; stroke-linecap: round"/>
   </g>
   <g id="text_28">
    <!-- BG454_RS09765 -->
    <g transform="translate(331.053022 433.583686)scale(0.08 -0.08)">
     <use xlink:href="#DejaVuSans-42"/>
     <use xlink:href="#DejaVuSans-47" x="66.853516"/>
     <use xlink:href="#DejaVuSans-34" x="144.34375"/>
     <use xlink:href="#DejaVuSans-35" x="207.966797"/>
     <use xlink:href="#DejaVuSans-34" x="271.589844"/>
     <use xlink:href="#DejaVuSans-5f" x="335.212891"/>
     <use xlink:href="#DejaVuSans-52" x="385.212891"/>
     <use xlink:href="#DejaVuSans-53" x="454.695312"/>
     <use xlink:href="#DejaVuSans-30" x="518.171875"/>
     <use xlink:href="#DejaVuSans-39" x="581.794922"/>
     <use xlink:href="#DejaVuSans-37" x="645.417969"/>
     <use xlink:href="#DejaVuSans-36" x="709.041016"/>
     <use xlink:href="#DejaVuSans-35" x="772.664062"/>
    </g>
   </g>
   <g id="patch_16">
    <path d="M 564.238638 512.922129 
Q 549.910055 513.811134 535.581472 514.700138 
" style="fill: none; opacity: 0.5; stroke: #808080; stroke-linecap: round"/>
   </g>
   <g id="text_29">
    <!-- BSF79_RS18365 -->
    <g transform="translate(533.587182 514.823873)scale(0.08 -0.08)">
     <defs>
      <path id="DejaVuSans-46" d="M 628 4666 
L 3309 4666 
L 3309 4134 
L 1259 4134 
L 1259 2759 
L 3109 2759 
L 3109 2228 
L 1259 2228 
L 1259 0 
L 628 0 
L 628 4666 
z
" transform="scale(0.015625)"/>
     </defs>
     <use xlink:href="#DejaVuSans-42"/>
     <use xlink:href="#DejaVuSans-53" x="66.853516"/>
     <use xlink:href="#DejaVuSans-46" x="130.330078"/>
     <use xlink:href="#DejaVuSans-37" x="187.849609"/>
     <use xlink:href="#DejaVuSans-39" x="251.472656"/>
     <use xlink:href="#DejaVuSans-5f" x="315.095703"/>
     <use xlink:href="#DejaVuSans-52" x="365.095703"/>
     <use xlink:href="#DejaVuSans-53" x="434.578125"/>
     <use xlink:href="#DejaVuSans-31" x="498.054688"/>
     <use xlink:href="#DejaVuSans-38" x="561.677734"/>
     <use xlink:href="#DejaVuSans-33" x="625.300781"/>
     <use xlink:href="#DejaVuSans-36" x="688.923828"/>
     <use xlink:href="#DejaVuSans-35" x="752.546875"/>
    </g>
   </g>
   <g id="patch_17">
    <path d="M 348.740015 485.071277 
Q 334.411432 485.960282 320.082849 486.849287 
" style="fill: none; opacity: 0.5; stroke: #808080; stroke-linecap: round"/>
   </g>
   <g id="text_30">
    <!-- BSF79_RS15930 -->
    <g transform="translate(318.088559 486.973021)scale(0.08 -0.08)">
     <use xlink:href="#DejaVuSans-42"/>
     <use xlink:href="#DejaVuSans-53" x="66.853516"/>
     <use xlink:href="#DejaVuSans-46" x="130.330078"/>
     <use xlink:href="#DejaVuSans-37" x="187.849609"/>
     <use xlink:href="#DejaVuSans-39" x="251.472656"/>
     <use xlink:href="#DejaVuSans-5f" x="315.095703"/>
     <use xlink:href="#DejaVuSans-52" x="365.095703"/>
     <use xlink:href="#DejaVuSans-53" x="434.578125"/>
     <use xlink:href="#DejaVuSans-31" x="498.054688"/>
     <use xlink:href="#DejaVuSans-35" x="561.677734"/>
     <use xlink:href="#DejaVuSans-39" x="625.300781"/>
     <use xlink:href="#DejaVuSans-33" x="688.923828"/>
     <use xlink:href="#DejaVuSans-30" x="752.546875"/>
    </g>
   </g>
   <g id="patch_18">
    <path d="M 425.323455 87.43153 
Q 412.321387 88.309678 399.31932 89.187826 
" style="fill: none; opacity: 0.5; stroke: #808080; stroke-linecap: round"/>
   </g>
   <g id="text_31">
    <!-- PLAV_RS12075 -->
    <g transform="translate(397.326889 89.322393)scale(0.08 -0.08)">
     <defs>
      <path id="DejaVuSans-50" d="M 1259 4147 
L 1259 2394 
L 2053 2394 
Q 2494 2394 2734 2622 
Q 2975 2850 2975 3272 
Q 2975 3691 2734 3919 
Q 2494 4147 2053 4147 
L 1259 4147 
z
M 628 4666 
L 2053 4666 
Q 2838 4666 3239 4311 
Q 3641 3956 3641 3272 
Q 3641 2581 3239 2228 
Q 2838 1875 2053 1875 
L 1259 1875 
L 1259 0 
L 628 0 
L 628 4666 
z
" transform="scale(0.015625)"/>
      <path id="DejaVuSans-4c" d="M 628 4666 
L 1259 4666 
L 1259 531 
L 3531 531 
L 3531 0 
L 628 0 
L 628 4666 
z
" transform="scale(0.015625)"/>
      <path id="DejaVuSans-56" d="M 1831 0 
L 50 4666 
L 709 4666 
L 2188 738 
L 3669 4666 
L 4325 4666 
L 2547 0 
L 1831 0 
z
" transform="scale(0.015625)"/>
     </defs>
     <use xlink:href="#DejaVuSans-50"/>
     <use xlink:href="#DejaVuSans-4c" x="60.302734"/>
     <use xlink:href="#DejaVuSans-41" x="118.265625"/>
     <use xlink:href="#DejaVuSans-56" x="180.298828"/>
     <use xlink:href="#DejaVuSans-5f" x="248.707031"/>
     <use xlink:href="#DejaVuSans-52" x="298.707031"/>
     <use xlink:href="#DejaVuSans-53" x="368.189453"/>
     <use xlink:href="#DejaVuSans-31" x="431.666016"/>
     <use xlink:href="#DejaVuSans-32" x="495.289062"/>
     <use xlink:href="#DejaVuSans-30" x="558.912109"/>
     <use xlink:href="#DejaVuSans-37" x="622.535156"/>
     <use xlink:href="#DejaVuSans-35" x="686.158203"/>
    </g>
   </g>
   <g id="patch_19">
    <path d="M 257.884977 122.889631 
Q 244.88291 123.767779 231.880842 124.645928 
" style="fill: none; opacity: 0.5; stroke: #808080; stroke-linecap: round"/>
   </g>
   <g id="text_32">
    <!-- PLAV_RS12070 -->
    <g transform="translate(229.888411 124.780495)scale(0.08 -0.08)">
     <use xlink:href="#DejaVuSans-50"/>
     <use xlink:href="#DejaVuSans-4c" x="60.302734"/>
     <use xlink:href="#DejaVuSans-41" x="118.265625"/>
     <use xlink:href="#DejaVuSans-56" x="180.298828"/>
     <use xlink:href="#DejaVuSans-5f" x="248.707031"/>
     <use xlink:href="#DejaVuSans-52" x="298.707031"/>
     <use xlink:href="#DejaVuSans-53" x="368.189453"/>
     <use xlink:href="#DejaVuSans-31" x="431.666016"/>
     <use xlink:href="#DejaVuSans-32" x="495.289062"/>
     <use xlink:href="#DejaVuSans-30" x="558.912109"/>
     <use xlink:href="#DejaVuSans-37" x="622.535156"/>
     <use xlink:href="#DejaVuSans-30" x="686.158203"/>
    </g>
   </g>
   <g id="patch_20">
    <path d="M 305.390655 144.479601 
Q 292.388587 145.357749 279.38652 146.235897 
" style="fill: none; opacity: 0.5; stroke: #808080; stroke-linecap: round"/>
   </g>
   <g id="text_33">
    <!-- PLAV_RS11965 -->
    <g transform="translate(277.394089 146.370464)scale(0.08 -0.08)">
     <use xlink:href="#DejaVuSans-50"/>
     <use xlink:href="#DejaVuSans-4c" x="60.302734"/>
     <use xlink:href="#DejaVuSans-41" x="118.265625"/>
     <use xlink:href="#DejaVuSans-56" x="180.298828"/>
     <use xlink:href="#DejaVuSans-5f" x="248.707031"/>
     <use xlink:href="#DejaVuSans-52" x="298.707031"/>
     <use xlink:href="#DejaVuSans-53" x="368.189453"/>
     <use xlink:href="#DejaVuSans-31" x="431.666016"/>
     <use xlink:href="#DejaVuSans-31" x="495.289062"/>
     <use xlink:href="#DejaVuSans-39" x="558.912109"/>
     <use xlink:href="#DejaVuSans-36" x="622.535156"/>
     <use xlink:href="#DejaVuSans-35" x="686.158203"/>
    </g>
   </g>
   <g id="patch_21">
    <path d="M 158.176164 145.680246 
Q 145.174096 146.558395 132.172029 147.436543 
" style="fill: none; opacity: 0.5; stroke: #808080; stroke-linecap: round"/>
   </g>
   <g id="text_34">
    <!-- PLAV_RS11955 -->
    <g transform="translate(130.179598 147.57111)scale(0.08 -0.08)">
     <use xlink:href="#DejaVuSans-50"/>
     <use xlink:href="#DejaVuSans-4c" x="60.302734"/>
     <use xlink:href="#DejaVuSans-41" x="118.265625"/>
     <use xlink:href="#DejaVuSans-56" x="180.298828"/>
     <use xlink:href="#DejaVuSans-5f" x="248.707031"/>
     <use xlink:href="#DejaVuSans-52" x="298.707031"/>
     <use xlink:href="#DejaVuSans-53" x="368.189453"/>
     <use xlink:href="#DejaVuSans-31" x="431.666016"/>
     <use xlink:href="#DejaVuSans-31" x="495.289062"/>
     <use xlink:href="#DejaVuSans-39" x="558.912109"/>
     <use xlink:href="#DejaVuSans-35" x="622.535156"/>
     <use xlink:href="#DejaVuSans-35" x="686.158203"/>
    </g>
   </g>
   <g id="patch_22">
    <path d="M 277.894932 277.912553 
Q 264.892865 278.790701 251.890798 279.668849 
" style="fill: none; opacity: 0.5; stroke: #808080; stroke-linecap: round"/>
   </g>
   <g id="text_35">
    <!-- PLAV_RS10335 -->
    <g transform="translate(249.898366 279.803416)scale(0.08 -0.08)">
     <use xlink:href="#DejaVuSans-50"/>
     <use xlink:href="#DejaVuSans-4c" x="60.302734"/>
     <use xlink:href="#DejaVuSans-41" x="118.265625"/>
     <use xlink:href="#DejaVuSans-56" x="180.298828"/>
     <use xlink:href="#DejaVuSans-5f" x="248.707031"/>
     <use xlink:href="#DejaVuSans-52" x="298.707031"/>
     <use xlink:href="#DejaVuSans-53" x="368.189453"/>
     <use xlink:href="#DejaVuSans-31" x="431.666016"/>
     <use xlink:href="#DejaVuSans-30" x="495.289062"/>
     <use xlink:href="#DejaVuSans-33" x="558.912109"/>
     <use xlink:href="#DejaVuSans-33" x="622.535156"/>
     <use xlink:href="#DejaVuSans-35" x="686.158203"/>
    </g>
   </g>
   <g id="patch_23">
    <path d="M 296.117672 317.708767 
Q 283.115604 318.586915 270.113537 319.465064 
" style="fill: none; opacity: 0.5; stroke: #808080; stroke-linecap: round"/>
   </g>
   <g id="text_36">
    <!-- PLAV_RS10330 -->
    <g transform="translate(268.121106 319.599631)scale(0.08 -0.08)">
     <use xlink:href="#DejaVuSans-50"/>
     <use xlink:href="#DejaVuSans-4c" x="60.302734"/>
     <use xlink:href="#DejaVuSans-41" x="118.265625"/>
     <use xlink:href="#DejaVuSans-56" x="180.298828"/>
     <use xlink:href="#DejaVuSans-5f" x="248.707031"/>
     <use xlink:href="#DejaVuSans-52" x="298.707031"/>
     <use xlink:href="#DejaVuSans-53" x="368.189453"/>
     <use xlink:href="#DejaVuSans-31" x="431.666016"/>
     <use xlink:href="#DejaVuSans-30" x="495.289062"/>
     <use xlink:href="#DejaVuSans-33" x="558.912109"/>
     <use xlink:href="#DejaVuSans-33" x="622.535156"/>
     <use xlink:href="#DejaVuSans-30" x="686.158203"/>
    </g>
   </g>
   <g id="patch_24">
    <path d="M 334.21111 33.306884 
Q 321.209043 34.185032 308.206976 35.06318 
" style="fill: none; opacity: 0.5; stroke: #808080; stroke-linecap: round"/>
   </g>
   <g id="text_37">
    <!-- PLAV_RS05525 -->
    <g transform="translate(306.214544 35.197747)scale(0.08 -0.08)">
     <use xlink:href="#DejaVuSans-50"/>
     <use xlink:href="#DejaVuSans-4c" x="60.302734"/>
     <use xlink:href="#DejaVuSans-41" x="118.265625"/>
     <use xlink:href="#DejaVuSans-56" x="180.298828"/>
     <use xlink:href="#DejaVuSans-5f" x="248.707031"/>
     <use xlink:href="#DejaVuSans-52" x="298.707031"/>
     <use xlink:href="#DejaVuSans-53" x="368.189453"/>
     <use xlink:href="#DejaVuSans-30" x="431.666016"/>
     <use xlink:href="#DejaVuSans-35" x="495.289062"/>
     <use xlink:href="#DejaVuSans-35" x="558.912109"/>
     <use xlink:href="#DejaVuSans-32" x="622.535156"/>
     <use xlink:href="#DejaVuSans-35" x="686.158203"/>
    </g>
   </g>
   <g id="patch_25">
    <path d="M 211.491842 296.641457 
Q 198.489775 297.519605 185.487708 298.397753 
" style="fill: none; opacity: 0.5; stroke: #808080; stroke-linecap: round"/>
   </g>
   <g id="text_38">
    <!-- PLAV_RS00365 -->
    <g transform="translate(183.495277 298.53232)scale(0.08 -0.08)">
     <use xlink:href="#DejaVuSans-50"/>
     <use xlink:href="#DejaVuSans-4c" x="60.302734"/>
     <use xlink:href="#DejaVuSans-41" x="118.265625"/>
     <use xlink:href="#DejaVuSans-56" x="180.298828"/>
     <use xlink:href="#DejaVuSans-5f" x="248.707031"/>
     <use xlink:href="#DejaVuSans-52" x="298.707031"/>
     <use xlink:href="#DejaVuSans-53" x="368.189453"/>
     <use xlink:href="#DejaVuSans-30" x="431.666016"/>
     <use xlink:href="#DejaVuSans-30" x="495.289062"/>
     <use xlink:href="#DejaVuSans-33" x="558.912109"/>
     <use xlink:href="#DejaVuSans-36" x="622.535156"/>
     <use xlink:href="#DejaVuSans-35" x="686.158203"/>
    </g>
   </g>
   <g id="patch_26">
    <path d="M 442.549222 458.280195 
Q 427.607379 459.173607 412.665535 460.06702 
" style="fill: none; opacity: 0.5; stroke: #808080; stroke-linecap: round"/>
   </g>
   <g id="text_39">
    <!-- ADU59_RS19520 -->
    <g transform="translate(410.669138 460.186389)scale(0.08 -0.08)">
     <use xlink:href="#DejaVuSans-41"/>
     <use xlink:href="#DejaVuSans-44" x="68.408203"/>
     <use xlink:href="#DejaVuSans-55" x="145.410156"/>
     <use xlink:href="#DejaVuSans-35" x="218.603516"/>
     <use xlink:href="#DejaVuSans-39" x="282.226562"/>
     <use xlink:href="#DejaVuSans-5f" x="345.849609"/>
     <use xlink:href="#DejaVuSans-52" x="395.849609"/>
     <use xlink:href="#DejaVuSans-53" x="465.332031"/>
     <use xlink:href="#DejaVuSans-31" x="528.808594"/>
     <use xlink:href="#DejaVuSans-39" x="592.431641"/>
     <use xlink:href="#DejaVuSans-35" x="656.054688"/>
     <use xlink:href="#DejaVuSans-32" x="719.677734"/>
     <use xlink:href="#DejaVuSans-30" x="783.300781"/>
    </g>
   </g>
   <g id="patch_27">
    <path d="M 488.530451 417.919995 
Q 473.588608 418.813408 458.646764 419.70682 
" style="fill: none; opacity: 0.5; stroke: #808080; stroke-linecap: round"/>
   </g>
   <g id="text_40">
    <!-- ADU59_RS12685 -->
    <g transform="translate(456.650367 419.82619)scale(0.08 -0.08)">
     <use xlink:href="#DejaVuSans-41"/>
     <use xlink:href="#DejaVuSans-44" x="68.408203"/>
     <use xlink:href="#DejaVuSans-55" x="145.410156"/>
     <use xlink:href="#DejaVuSans-35" x="218.603516"/>
     <use xlink:href="#DejaVuSans-39" x="282.226562"/>
     <use xlink:href="#DejaVuSans-5f" x="345.849609"/>
     <use xlink:href="#DejaVuSans-52" x="395.849609"/>
     <use xlink:href="#DejaVuSans-53" x="465.332031"/>
     <use xlink:href="#DejaVuSans-31" x="528.808594"/>
     <use xlink:href="#DejaVuSans-32" x="592.431641"/>
     <use xlink:href="#DejaVuSans-36" x="656.054688"/>
     <use xlink:href="#DejaVuSans-38" x="719.677734"/>
     <use xlink:href="#DejaVuSans-35" x="783.300781"/>
    </g>
   </g>
   <g id="patch_28">
    <path d="M 287.661611 103.481957 
Q 272.719768 104.375369 257.777924 105.268782 
" style="fill: none; opacity: 0.5; stroke: #808080; stroke-linecap: round"/>
   </g>
   <g id="text_41">
    <!-- ADU59_RS05750 -->
    <g transform="translate(255.781527 105.388152)scale(0.08 -0.08)">
     <use xlink:href="#DejaVuSans-41"/>
     <use xlink:href="#DejaVuSans-44" x="68.408203"/>
     <use xlink:href="#DejaVuSans-55" x="145.410156"/>
     <use xlink:href="#DejaVuSans-35" x="218.603516"/>
     <use xlink:href="#DejaVuSans-39" x="282.226562"/>
     <use xlink:href="#DejaVuSans-5f" x="345.849609"/>
     <use xlink:href="#DejaVuSans-52" x="395.849609"/>
     <use xlink:href="#DejaVuSans-53" x="465.332031"/>
     <use xlink:href="#DejaVuSans-30" x="528.808594"/>
     <use xlink:href="#DejaVuSans-35" x="592.431641"/>
     <use xlink:href="#DejaVuSans-37" x="656.054688"/>
     <use xlink:href="#DejaVuSans-35" x="719.677734"/>
     <use xlink:href="#DejaVuSans-30" x="783.300781"/>
    </g>
   </g>
   <g id="patch_29">
    <path d="M 298.977675 277.809714 
Q 282.616624 278.712441 266.255574 279.615167 
" style="fill: none; opacity: 0.5; stroke: #808080; stroke-linecap: round"/>
   </g>
   <g id="text_42">
    <!-- A3OQ_RS0103935 -->
    <g transform="translate(264.259445 279.725304)scale(0.08 -0.08)">
     <defs>
      <path id="DejaVuSans-4f" d="M 2522 4238 
Q 1834 4238 1429 3725 
Q 1025 3213 1025 2328 
Q 1025 1447 1429 934 
Q 1834 422 2522 422 
Q 3209 422 3611 934 
Q 4013 1447 4013 2328 
Q 4013 3213 3611 3725 
Q 3209 4238 2522 4238 
z
M 2522 4750 
Q 3503 4750 4090 4092 
Q 4678 3434 4678 2328 
Q 4678 1225 4090 567 
Q 3503 -91 2522 -91 
Q 1538 -91 948 565 
Q 359 1222 359 2328 
Q 359 3434 948 4092 
Q 1538 4750 2522 4750 
z
" transform="scale(0.015625)"/>
      <path id="DejaVuSans-51" d="M 2522 4238 
Q 1834 4238 1429 3725 
Q 1025 3213 1025 2328 
Q 1025 1447 1429 934 
Q 1834 422 2522 422 
Q 3209 422 3611 934 
Q 4013 1447 4013 2328 
Q 4013 3213 3611 3725 
Q 3209 4238 2522 4238 
z
M 3406 84 
L 4238 -825 
L 3475 -825 
L 2784 -78 
Q 2681 -84 2626 -87 
Q 2572 -91 2522 -91 
Q 1538 -91 948 567 
Q 359 1225 359 2328 
Q 359 3434 948 4092 
Q 1538 4750 2522 4750 
Q 3503 4750 4090 4092 
Q 4678 3434 4678 2328 
Q 4678 1516 4351 937 
Q 4025 359 3406 84 
z
" transform="scale(0.015625)"/>
     </defs>
     <use xlink:href="#DejaVuSans-41"/>
     <use xlink:href="#DejaVuSans-33" x="68.408203"/>
     <use xlink:href="#DejaVuSans-4f" x="132.03125"/>
     <use xlink:href="#DejaVuSans-51" x="210.742188"/>
     <use xlink:href="#DejaVuSans-5f" x="289.453125"/>
     <use xlink:href="#DejaVuSans-52" x="339.453125"/>
     <use xlink:href="#DejaVuSans-53" x="408.935547"/>
     <use xlink:href="#DejaVuSans-30" x="472.412109"/>
     <use xlink:href="#DejaVuSans-31" x="536.035156"/>
     <use xlink:href="#DejaVuSans-30" x="599.658203"/>
     <use xlink:href="#DejaVuSans-33" x="663.28125"/>
     <use xlink:href="#DejaVuSans-39" x="726.904297"/>
     <use xlink:href="#DejaVuSans-33" x="790.527344"/>
     <use xlink:href="#DejaVuSans-35" x="854.150391"/>
    </g>
   </g>
   <g id="patch_30">
    <path d="M 424.375018 182.254943 
Q 409.935665 183.144875 395.496313 184.034806 
" style="fill: none; opacity: 0.5; stroke: #808080; stroke-linecap: round"/>
   </g>
   <g id="text_43">
    <!-- B5Y19_RS10715 -->
    <g transform="translate(393.502729 184.157676)scale(0.08 -0.08)">
     <defs>
      <path id="DejaVuSans-59" d="M -13 4666 
L 666 4666 
L 1959 2747 
L 3244 4666 
L 3922 4666 
L 2272 2222 
L 2272 0 
L 1638 0 
L 1638 2222 
L -13 4666 
z
" transform="scale(0.015625)"/>
     </defs>
     <use xlink:href="#DejaVuSans-42"/>
     <use xlink:href="#DejaVuSans-35" x="68.603516"/>
     <use xlink:href="#DejaVuSans-59" x="132.226562"/>
     <use xlink:href="#DejaVuSans-31" x="193.310547"/>
     <use xlink:href="#DejaVuSans-39" x="256.933594"/>
     <use xlink:href="#DejaVuSans-5f" x="320.556641"/>
     <use xlink:href="#DejaVuSans-52" x="370.556641"/>
     <use xlink:href="#DejaVuSans-53" x="440.039062"/>
     <use xlink:href="#DejaVuSans-31" x="503.515625"/>
     <use xlink:href="#DejaVuSans-30" x="567.138672"/>
     <use xlink:href="#DejaVuSans-37" x="630.761719"/>
     <use xlink:href="#DejaVuSans-31" x="694.384766"/>
     <use xlink:href="#DejaVuSans-35" x="758.007812"/>
    </g>
   </g>
   <g id="patch_31">
    <path d="M 303.803205 141.958122 
Q 289.363852 142.848054 274.924499 143.737985 
" style="fill: none; opacity: 0.5; stroke: #808080; stroke-linecap: round"/>
   </g>
   <g id="text_44">
    <!-- B5Y19_RS10675 -->
    <g transform="translate(272.930915 143.860855)scale(0.08 -0.08)">
     <use xlink:href="#DejaVuSans-42"/>
     <use xlink:href="#DejaVuSans-35" x="68.603516"/>
     <use xlink:href="#DejaVuSans-59" x="132.226562"/>
     <use xlink:href="#DejaVuSans-31" x="193.310547"/>
     <use xlink:href="#DejaVuSans-39" x="256.933594"/>
     <use xlink:href="#DejaVuSans-5f" x="320.556641"/>
     <use xlink:href="#DejaVuSans-52" x="370.556641"/>
     <use xlink:href="#DejaVuSans-53" x="440.039062"/>
     <use xlink:href="#DejaVuSans-31" x="503.515625"/>
     <use xlink:href="#DejaVuSans-30" x="567.138672"/>
     <use xlink:href="#DejaVuSans-36" x="630.761719"/>
     <use xlink:href="#DejaVuSans-37" x="694.384766"/>
     <use xlink:href="#DejaVuSans-35" x="758.007812"/>
    </g>
   </g>
   <g id="patch_32">
    <path d="M 154.728338 148.043632 
Q 140.288985 148.933563 125.849633 149.823495 
" style="fill: none; opacity: 0.5; stroke: #808080; stroke-linecap: round"/>
   </g>
   <g id="text_45">
    <!-- B5Y19_RS10665 -->
    <g transform="translate(123.856049 149.946364)scale(0.08 -0.08)">
     <use xlink:href="#DejaVuSans-42"/>
     <use xlink:href="#DejaVuSans-35" x="68.603516"/>
     <use xlink:href="#DejaVuSans-59" x="132.226562"/>
     <use xlink:href="#DejaVuSans-31" x="193.310547"/>
     <use xlink:href="#DejaVuSans-39" x="256.933594"/>
     <use xlink:href="#DejaVuSans-5f" x="320.556641"/>
     <use xlink:href="#DejaVuSans-52" x="370.556641"/>
     <use xlink:href="#DejaVuSans-53" x="440.039062"/>
     <use xlink:href="#DejaVuSans-31" x="503.515625"/>
     <use xlink:href="#DejaVuSans-30" x="567.138672"/>
     <use xlink:href="#DejaVuSans-36" x="630.761719"/>
     <use xlink:href="#DejaVuSans-36" x="694.384766"/>
     <use xlink:href="#DejaVuSans-35" x="758.007812"/>
    </g>
   </g>
   <g id="patch_33">
    <path d="M 185.259422 112.604082 
Q 178.743395 113.380324 172.227367 114.156567 
" style="fill: none; opacity: 0.5; stroke: #808080; stroke-linecap: round"/>
   </g>
   <g id="text_46">
    <!-- PP_5241 -->
    <g transform="translate(170.244148 114.392824)scale(0.08 -0.08)">
     <use xlink:href="#DejaVuSans-50"/>
     <use xlink:href="#DejaVuSans-50" x="60.302734"/>
     <use xlink:href="#DejaVuSans-5f" x="120.605469"/>
     <use xlink:href="#DejaVuSans-35" x="170.605469"/>
     <use xlink:href="#DejaVuSans-32" x="234.228516"/>
     <use xlink:href="#DejaVuSans-34" x="297.851562"/>
     <use xlink:href="#DejaVuSans-31" x="361.474609"/>
    </g>
   </g>
   <g id="patch_34">
    <path d="M 358.270347 110.750283 
Q 351.754319 111.526525 345.238291 112.302767 
" style="fill: none; opacity: 0.5; stroke: #808080; stroke-linecap: round"/>
   </g>
   <g id="text_47">
    <!-- PP_5240 -->
    <g transform="translate(343.255073 112.539024)scale(0.08 -0.08)">
     <use xlink:href="#DejaVuSans-50"/>
     <use xlink:href="#DejaVuSans-50" x="60.302734"/>
     <use xlink:href="#DejaVuSans-5f" x="120.605469"/>
     <use xlink:href="#DejaVuSans-35" x="170.605469"/>
     <use xlink:href="#DejaVuSans-32" x="234.228516"/>
     <use xlink:href="#DejaVuSans-34" x="297.851562"/>
     <use xlink:href="#DejaVuSans-30" x="361.474609"/>
    </g>
   </g>
   <g id="patch_35">
    <path d="M 315.261999 175.956338 
Q 308.745971 176.73258 302.229944 177.508823 
" style="fill: none; opacity: 0.5; stroke: #808080; stroke-linecap: round"/>
   </g>
   <g id="text_48">
    <!-- PP_3551 -->
    <g transform="translate(300.246725 177.74508)scale(0.08 -0.08)">
     <use xlink:href="#DejaVuSans-50"/>
     <use xlink:href="#DejaVuSans-50" x="60.302734"/>
     <use xlink:href="#DejaVuSans-5f" x="120.605469"/>
     <use xlink:href="#DejaVuSans-33" x="170.605469"/>
     <use xlink:href="#DejaVuSans-35" x="234.228516"/>
     <use xlink:href="#DejaVuSans-35" x="297.851562"/>
     <use xlink:href="#DejaVuSans-31" x="361.474609"/>
    </g>
   </g>
   <g id="patch_36">
    <path d="M 387.318362 407.594398 
Q 380.802334 408.37064 374.286306 409.146882 
" style="fill: none; opacity: 0.5; stroke: #808080; stroke-linecap: round"/>
   </g>
   <g id="text_49">
    <!-- PP_1401 -->
    <g transform="translate(372.303087 409.38314)scale(0.08 -0.08)">
     <use xlink:href="#DejaVuSans-50"/>
     <use xlink:href="#DejaVuSans-50" x="60.302734"/>
     <use xlink:href="#DejaVuSans-5f" x="120.605469"/>
     <use xlink:href="#DejaVuSans-31" x="170.605469"/>
     <use xlink:href="#DejaVuSans-34" x="234.228516"/>
     <use xlink:href="#DejaVuSans-30" x="297.851562"/>
     <use xlink:href="#DejaVuSans-31" x="361.474609"/>
    </g>
   </g>
   <g id="patch_37">
    <path d="M 509.367278 452.902655 
Q 502.85125 453.678897 496.335222 454.455139 
" style="fill: none; opacity: 0.5; stroke: #808080; stroke-linecap: round"/>
   </g>
   <g id="text_50">
    <!-- PP_1066 -->
    <g transform="translate(494.352004 454.691396)scale(0.08 -0.08)">
     <use xlink:href="#DejaVuSans-50"/>
     <use xlink:href="#DejaVuSans-50" x="60.302734"/>
     <use xlink:href="#DejaVuSans-5f" x="120.605469"/>
     <use xlink:href="#DejaVuSans-31" x="170.605469"/>
     <use xlink:href="#DejaVuSans-30" x="234.228516"/>
     <use xlink:href="#DejaVuSans-36" x="297.851562"/>
     <use xlink:href="#DejaVuSans-36" x="361.474609"/>
    </g>
   </g>
   <g id="patch_38">
    <path d="M 466.145049 494.910704 
Q 459.629021 495.686946 453.112993 496.463188 
" style="fill: none; opacity: 0.5; stroke: #808080; stroke-linecap: round"/>
   </g>
   <g id="text_51">
    <!-- PP_0263 -->
    <g transform="translate(451.129775 496.699445)scale(0.08 -0.08)">
     <use xlink:href="#DejaVuSans-50"/>
     <use xlink:href="#DejaVuSans-50" x="60.302734"/>
     <use xlink:href="#DejaVuSans-5f" x="120.605469"/>
     <use xlink:href="#DejaVuSans-30" x="170.605469"/>
     <use xlink:href="#DejaVuSans-32" x="234.228516"/>
     <use xlink:href="#DejaVuSans-36" x="297.851562"/>
     <use xlink:href="#DejaVuSans-33" x="361.474609"/>
    </g>
   </g>
   <g id="patch_39">
    <path d="M 480.884553 340.536025 
Q 474.368525 341.312268 467.852498 342.08851 
" style="fill: none; opacity: 0.5; stroke: #808080; stroke-linecap: round"/>
   </g>
   <g id="text_52">
    <!-- PP_0355 -->
    <g transform="translate(465.869279 342.324767)scale(0.08 -0.08)">
     <use xlink:href="#DejaVuSans-50"/>
     <use xlink:href="#DejaVuSans-50" x="60.302734"/>
     <use xlink:href="#DejaVuSans-5f" x="120.605469"/>
     <use xlink:href="#DejaVuSans-30" x="170.605469"/>
     <use xlink:href="#DejaVuSans-33" x="234.228516"/>
     <use xlink:href="#DejaVuSans-35" x="297.851562"/>
     <use xlink:href="#DejaVuSans-35" x="361.474609"/>
    </g>
   </g>
   <g id="patch_40">
    <path d="M 427.676753 181.892331 
Q 411.919715 182.791093 396.162677 183.689855 
" style="fill: none; opacity: 0.5; stroke: #808080; stroke-linecap: round"/>
   </g>
   <g id="text_53">
    <!-- B152_RS0109090 -->
    <g transform="translate(394.162108 183.803965)scale(0.08 -0.08)">
     <use xlink:href="#DejaVuSans-42"/>
     <use xlink:href="#DejaVuSans-31" x="68.603516"/>
     <use xlink:href="#DejaVuSans-35" x="132.226562"/>
     <use xlink:href="#DejaVuSans-32" x="195.849609"/>
     <use xlink:href="#DejaVuSans-5f" x="259.472656"/>
     <use xlink:href="#DejaVuSans-52" x="309.472656"/>
     <use xlink:href="#DejaVuSans-53" x="378.955078"/>
     <use xlink:href="#DejaVuSans-30" x="442.431641"/>
     <use xlink:href="#DejaVuSans-31" x="506.054688"/>
     <use xlink:href="#DejaVuSans-30" x="569.677734"/>
     <use xlink:href="#DejaVuSans-39" x="633.300781"/>
     <use xlink:href="#DejaVuSans-30" x="696.923828"/>
     <use xlink:href="#DejaVuSans-39" x="760.546875"/>
     <use xlink:href="#DejaVuSans-30" x="824.169922"/>
    </g>
   </g>
   <g id="patch_41">
    <path d="M 431.120082 424.179854 
Q 415.363045 425.078616 399.606007 425.977379 
" style="fill: none; opacity: 0.5; stroke: #808080; stroke-linecap: round"/>
   </g>
   <g id="text_54">
    <!-- B152_RS0108145 -->
    <g transform="translate(397.605438 426.091489)scale(0.08 -0.08)">
     <use xlink:href="#DejaVuSans-42"/>
     <use xlink:href="#DejaVuSans-31" x="68.603516"/>
     <use xlink:href="#DejaVuSans-35" x="132.226562"/>
     <use xlink:href="#DejaVuSans-32" x="195.849609"/>
     <use xlink:href="#DejaVuSans-5f" x="259.472656"/>
     <use xlink:href="#DejaVuSans-52" x="309.472656"/>
     <use xlink:href="#DejaVuSans-53" x="378.955078"/>
     <use xlink:href="#DejaVuSans-30" x="442.431641"/>
     <use xlink:href="#DejaVuSans-31" x="506.054688"/>
     <use xlink:href="#DejaVuSans-30" x="569.677734"/>
     <use xlink:href="#DejaVuSans-38" x="633.300781"/>
     <use xlink:href="#DejaVuSans-31" x="696.923828"/>
     <use xlink:href="#DejaVuSans-34" x="760.546875"/>
     <use xlink:href="#DejaVuSans-35" x="824.169922"/>
    </g>
   </g>
   <g id="patch_42">
    <path d="M 342.341615 254.099806 
Q 327.902263 254.989738 313.46291 255.879669 
" style="fill: none; opacity: 0.5; stroke: #808080; stroke-linecap: round"/>
   </g>
   <g id="text_55">
    <!-- CEP68_RS27755 -->
    <g transform="translate(311.469326 256.002539)scale(0.08 -0.08)">
     <defs>
      <path id="DejaVuSans-43" d="M 4122 4306 
L 4122 3641 
Q 3803 3938 3442 4084 
Q 3081 4231 2675 4231 
Q 1875 4231 1450 3742 
Q 1025 3253 1025 2328 
Q 1025 1406 1450 917 
Q 1875 428 2675 428 
Q 3081 428 3442 575 
Q 3803 722 4122 1019 
L 4122 359 
Q 3791 134 3420 21 
Q 3050 -91 2638 -91 
Q 1578 -91 968 557 
Q 359 1206 359 2328 
Q 359 3453 968 4101 
Q 1578 4750 2638 4750 
Q 3056 4750 3426 4639 
Q 3797 4528 4122 4306 
z
" transform="scale(0.015625)"/>
     </defs>
     <use xlink:href="#DejaVuSans-43"/>
     <use xlink:href="#DejaVuSans-45" x="69.824219"/>
     <use xlink:href="#DejaVuSans-50" x="133.007812"/>
     <use xlink:href="#DejaVuSans-36" x="193.310547"/>
     <use xlink:href="#DejaVuSans-38" x="256.933594"/>
     <use xlink:href="#DejaVuSans-5f" x="320.556641"/>
     <use xlink:href="#DejaVuSans-52" x="370.556641"/>
     <use xlink:href="#DejaVuSans-53" x="440.039062"/>
     <use xlink:href="#DejaVuSans-32" x="503.515625"/>
     <use xlink:href="#DejaVuSans-37" x="567.138672"/>
     <use xlink:href="#DejaVuSans-37" x="630.761719"/>
     <use xlink:href="#DejaVuSans-35" x="694.384766"/>
     <use xlink:href="#DejaVuSans-35" x="758.007812"/>
    </g>
   </g>
   <g id="patch_43">
    <path d="M 478.997619 377.907888 
Q 464.558267 378.797819 450.118914 379.687751 
" style="fill: none; opacity: 0.5; stroke: #808080; stroke-linecap: round"/>
   </g>
   <g id="text_56">
    <!-- CEP68_RS17635 -->
    <g transform="translate(448.12533 379.81062)scale(0.08 -0.08)">
     <use xlink:href="#DejaVuSans-43"/>
     <use xlink:href="#DejaVuSans-45" x="69.824219"/>
     <use xlink:href="#DejaVuSans-50" x="133.007812"/>
     <use xlink:href="#DejaVuSans-36" x="193.310547"/>
     <use xlink:href="#DejaVuSans-38" x="256.933594"/>
     <use xlink:href="#DejaVuSans-5f" x="320.556641"/>
     <use xlink:href="#DejaVuSans-52" x="370.556641"/>
     <use xlink:href="#DejaVuSans-53" x="440.039062"/>
     <use xlink:href="#DejaVuSans-31" x="503.515625"/>
     <use xlink:href="#DejaVuSans-37" x="567.138672"/>
     <use xlink:href="#DejaVuSans-36" x="630.761719"/>
     <use xlink:href="#DejaVuSans-33" x="694.384766"/>
     <use xlink:href="#DejaVuSans-35" x="758.007812"/>
    </g>
   </g>
  </g>
 </g>
 <defs>
  <clipPath id="p7e6b0542aa">
   <rect x="40.603125" y="7.2" width="558" height="543.6"/>
  </clipPath>
 </defs>
</svg>
